<svg width="154" height="52" viewBox="0 0 154 52" fill="none" xmlns="http://www.w3.org/2000/svg">
<g clip-path="url(#clip0_56_2654)">
<path d="M141.736 0.000169H12.2705C11.7986 0.000169 11.3323 0.000169 10.8617 0.002769C10.4677 0.005369 10.0768 0.012922 9.67905 0.019279C8.81489 0.0295513 7.95276 0.106348 7.10015 0.249002C6.24875 0.394761 5.42401 0.669559 4.65384 1.0641C3.88462 1.46198 3.18175 1.97899 2.57074 2.59636C1.95653 3.212 1.44454 3.92359 1.05445 4.70378C0.663287 5.48241 0.392053 6.31679 0.250116 7.17809C0.10683 8.03831 0.0297261 8.90845 0.0194971 9.78069C0.00755432 10.1793 0.00629312 10.5792 0 10.9778V41.0263C0.00629312 41.43 0.00755432 41.821 0.0194971 42.2248C0.0297293 43.097 0.106833 43.9671 0.250116 44.8273C0.391661 45.6891 0.662911 46.524 1.05445 47.3029C1.44436 48.0805 1.95643 48.7893 2.57074 49.4015C3.17943 50.0216 3.88275 50.5389 4.65384 50.9338C5.42401 51.3294 6.24865 51.6058 7.10015 51.7538C7.9529 51.8953 8.81494 51.9722 9.67905 51.9837C10.0768 51.9925 10.4677 51.9976 10.8617 51.9976C11.3323 52.0002 11.7986 52.0002 12.2705 52.0002H141.736C142.199 52.0002 142.669 52.0002 143.131 51.9976C143.524 51.9976 143.926 51.9925 144.318 51.9837C145.18 51.9728 146.041 51.8959 146.892 51.7538C147.746 51.6048 148.574 51.3284 149.347 50.9338C150.118 50.5387 150.821 50.0214 151.429 49.4015C152.041 48.7869 152.555 48.0787 152.949 47.3029C153.338 46.5234 153.607 45.6886 153.746 44.8273C153.89 43.967 153.969 43.0971 153.985 42.2248C153.99 41.821 153.99 41.43 153.99 41.0263C154 40.5541 154 40.0844 154 39.6044V12.3971C154 11.9211 154 11.4488 153.99 10.9778C153.99 10.5792 153.99 10.1793 153.985 9.78064C153.969 8.90832 153.89 8.03837 153.746 7.17804C153.606 6.31723 153.338 5.48292 152.949 4.70372C152.155 3.13992 150.895 1.867 149.347 1.06398C148.574 0.670407 147.746 0.395682 146.892 0.248885C146.041 0.105603 145.18 0.0287791 144.318 0.019097C143.926 0.012753 143.524 0.005135 143.131 0.0026C142.669 0 142.199 0.000169 141.736 0.000169Z" fill="#A6A6A6"/>
<path d="M10.868 50.8625C10.4759 50.8625 10.0932 50.8574 9.70422 50.8486C8.89832 50.838 8.0943 50.7671 7.29876 50.6366C6.55695 50.5075 5.83835 50.2675 5.16664 49.9243C4.50109 49.584 3.89405 49.1378 3.36879 48.6027C2.83592 48.074 2.39228 47.4607 2.05546 46.7873C1.71492 46.1094 1.47925 45.3829 1.35665 44.6329C1.22426 43.8271 1.15263 43.0122 1.14238 42.1954C1.13422 41.9212 1.12354 41.0084 1.12354 41.0084V10.9777C1.12354 10.9777 1.13491 10.0788 1.14244 9.81475C1.15225 8.99924 1.22347 8.18566 1.35547 7.38106C1.47829 6.62904 1.71414 5.90039 2.05487 5.22033C2.39045 4.54734 2.83163 3.93363 3.36129 3.403C3.89035 2.86732 4.49933 2.4188 5.16601 2.07379C5.83617 1.73173 6.55342 1.49336 7.29372 1.36666C8.09188 1.2348 8.89869 1.16351 9.70739 1.15339L10.8686 1.13751H143.125L144.3 1.15402C145.102 1.16364 145.901 1.2343 146.692 1.36539C147.44 1.49368 148.164 1.73371 148.842 2.07759C150.178 2.77289 151.265 3.87292 151.95 5.2235C152.285 5.89886 152.518 6.62157 152.639 7.3671C152.773 8.1783 152.847 8.99827 152.863 9.82047C152.866 10.1886 152.866 10.5841 152.866 10.9777C152.877 11.4652 152.877 11.9292 152.877 12.397V39.6043C152.877 40.0765 152.877 40.5374 152.866 41.002C152.866 41.4248 152.866 41.812 152.861 42.2106C152.846 43.0182 152.773 43.8235 152.641 44.6202C152.521 45.3756 152.287 46.1078 151.946 46.7912C151.607 47.4573 151.166 48.0653 150.639 48.5926C150.114 49.1305 149.506 49.5793 148.839 49.9218C148.163 50.2676 147.439 50.5086 146.692 50.6366C145.896 50.7678 145.092 50.8387 144.286 50.8486C143.909 50.8574 143.515 50.8625 143.131 50.8625L141.736 50.8651L10.868 50.8625Z" fill="black"/>
<path d="M31.876 26.3909C31.8898 25.3058 32.1751 24.2419 32.7054 23.2982C33.2356 22.3545 33.9936 21.5615 34.9087 20.9932C34.3273 20.1545 33.5604 19.4643 32.6688 18.9774C31.7772 18.4904 30.7854 18.2202 29.7723 18.1882C27.6113 17.9591 25.5162 19.4945 24.4149 19.4945C23.2924 19.4945 21.5969 18.211 19.771 18.2489C18.59 18.2875 17.4391 18.6344 16.4303 19.2559C15.4215 19.8773 14.5893 20.7522 14.0147 21.7952C11.5257 26.1481 13.3823 32.5455 15.7665 36.0641C16.9593 37.787 18.3534 39.7116 20.1776 39.6434C21.9627 39.5686 22.6293 38.4935 24.7841 38.4935C26.9188 38.4935 27.5443 39.6434 29.4054 39.6C31.3209 39.5686 32.5277 37.8693 33.6787 36.1301C34.5358 34.9024 35.1953 33.5456 35.6328 32.1098C34.52 31.6344 33.5704 30.8385 32.9023 29.8216C32.2342 28.8046 31.8773 27.6114 31.876 26.3909Z" fill="white"/>
<path d="M28.3605 15.8742C29.4049 14.6077 29.9194 12.9799 29.7948 11.3364C28.1992 11.5057 26.7253 12.276 25.6668 13.4939C25.1493 14.0888 24.7529 14.781 24.5004 15.5308C24.2478 16.2806 24.1441 17.0733 24.195 17.8637C24.993 17.872 25.7826 17.6972 26.5041 17.3526C27.2257 17.008 27.8604 16.5025 28.3605 15.8742Z" fill="white"/>
<path d="M54.4403 35.2815H48.3487L46.8858 39.6449H44.3057L50.0755 23.5015H52.7562L58.5261 39.6449H55.9019L54.4403 35.2815ZM48.9796 33.2681H53.8082L51.4279 26.1866H51.3612L48.9796 33.2681Z" fill="white"/>
<path d="M70.9869 33.7607C70.9869 37.4182 69.049 39.7681 66.1245 39.7681C65.3836 39.8072 64.6469 39.6348 63.9985 39.2707C63.3502 38.9065 62.8164 38.3652 62.4585 37.7089H62.4031V43.5386H60.0115V27.8751H62.3265V29.8327H62.3705C62.7449 29.1795 63.2877 28.6411 63.9409 28.2747C64.5942 27.9083 65.3336 27.7276 66.0805 27.752C69.0376 27.752 70.9869 30.1133 70.9869 33.7607ZM68.5287 33.7607C68.5287 31.3778 67.3096 29.8111 65.4496 29.8111C63.6222 29.8111 62.3931 31.4108 62.3931 33.7607C62.3931 36.1321 63.6222 37.7203 65.4496 37.7203C67.3096 37.7203 68.5287 36.1652 68.5287 33.7607Z" fill="white"/>
<path d="M83.8111 33.7606C83.8111 37.4182 81.8732 39.7681 78.9487 39.7681C78.2078 39.8072 77.4711 39.6348 76.8227 39.2706C76.1744 38.9065 75.6407 38.3652 75.2827 37.7089H75.2273V43.5386H72.8357V27.8751H75.1507V29.8327H75.1946C75.5691 29.1795 76.1118 28.6411 76.7651 28.2747C77.4184 27.9083 78.1578 27.7276 78.9047 27.752C81.8619 27.752 83.8111 30.1133 83.8111 33.7606ZM81.3529 33.7606C81.3529 31.3777 80.1338 29.8111 78.2738 29.8111C76.4464 29.8111 75.2173 31.4107 75.2173 33.7606C75.2173 36.1321 76.4464 37.7203 78.2738 37.7203C80.1338 37.7203 81.3529 36.1651 81.3529 33.7606Z" fill="white"/>
<path d="M92.2867 35.147C92.4639 36.7479 94.0035 37.799 96.1073 37.799C98.1232 37.799 99.5735 36.7478 99.5735 35.3043C99.5735 34.0513 98.6988 33.301 96.6276 32.7869L94.5565 32.2829C91.6219 31.5668 90.2596 30.1805 90.2596 27.9309C90.2596 25.1455 92.6625 23.2324 96.0746 23.2324C99.4516 23.2324 101.767 25.1455 101.844 27.9309H99.4302C99.2857 26.3199 97.9673 25.3474 96.0407 25.3474C94.1141 25.3474 92.7957 26.3313 92.7957 27.7633C92.7957 28.9046 93.6377 29.5762 95.6976 30.0903L97.4583 30.5271C100.737 31.3104 102.1 32.6409 102.1 35.0021C102.1 38.0224 99.718 39.914 95.9301 39.914C92.386 39.914 89.9931 38.0668 89.8385 35.1469L92.2867 35.147Z" fill="white"/>
<path d="M107.261 25.0898V27.8751H109.477V29.7883H107.261V36.2769C107.261 37.2849 107.705 37.7546 108.679 37.7546C108.942 37.75 109.205 37.7313 109.466 37.6987V39.6005C109.028 39.6831 108.583 39.7205 108.137 39.7122C105.778 39.7122 104.858 38.8172 104.858 36.5345V29.7883H103.164V27.8751H104.858V25.0898H107.261Z" fill="white"/>
<path d="M110.76 33.7606C110.76 30.0574 112.919 27.7304 116.286 27.7304C119.664 27.7304 121.813 30.0574 121.813 33.7606C121.813 37.474 119.676 39.7909 116.286 39.7909C112.898 39.7909 110.76 37.474 110.76 33.7606ZM119.377 33.7606C119.377 31.2203 118.224 29.721 116.286 29.721C114.348 29.721 113.197 31.2317 113.197 33.7606C113.197 36.3111 114.348 37.799 116.286 37.799C118.224 37.799 119.377 36.3111 119.377 33.7606Z" fill="white"/>
<path d="M123.785 27.8751H126.066V29.8784H126.122C126.276 29.2527 126.639 28.6998 127.149 28.3126C127.66 27.9253 128.286 27.7274 128.924 27.752C129.2 27.751 129.475 27.7812 129.744 27.8421V30.1019C129.396 29.9945 129.033 29.9451 128.669 29.9559C128.322 29.9416 127.975 30.0035 127.654 30.1373C127.332 30.271 127.043 30.4735 126.806 30.7307C126.57 30.988 126.391 31.294 126.282 31.6276C126.173 31.9613 126.138 32.3148 126.177 32.6638V39.6449H123.785L123.785 27.8751Z" fill="white"/>
<path d="M140.771 36.188C140.449 38.3246 138.389 39.7909 135.754 39.7909C132.364 39.7909 130.26 37.4969 130.26 33.8165C130.26 30.1247 132.376 27.7304 135.653 27.7304C138.877 27.7304 140.904 29.9673 140.904 33.5359V34.3637H132.675V34.5097C132.637 34.9428 132.69 35.3792 132.832 35.7898C132.974 36.2004 133.201 36.5758 133.497 36.8911C133.793 37.2064 134.153 37.4544 134.552 37.6186C134.95 37.7828 135.379 37.8595 135.809 37.8435C136.374 37.8969 136.941 37.7647 137.426 37.4664C137.911 37.1682 138.288 36.7198 138.5 36.188L140.771 36.188ZM132.686 32.6752H138.511C138.533 32.2857 138.474 31.896 138.339 31.5304C138.205 31.1648 137.997 30.8313 137.728 30.5508C137.46 30.2703 137.137 30.0489 136.78 29.9004C136.423 29.7519 136.039 29.6796 135.653 29.688C135.264 29.6856 134.878 29.7612 134.517 29.9104C134.157 30.0596 133.829 30.2794 133.553 30.5571C133.278 30.8348 133.059 31.165 132.91 31.5285C132.761 31.8921 132.685 32.2818 132.686 32.6752Z" fill="white"/>
<path d="M47.2798 14.6294H48.3066C48.4834 14.6517 48.6628 14.6367 48.8335 14.5854C49.0042 14.5341 49.1626 14.4477 49.2986 14.3315C49.4346 14.2153 49.5454 14.072 49.6238 13.9104C49.7023 13.7489 49.7467 13.5727 49.7544 13.3929C49.7544 12.6776 49.2216 12.2154 48.3179 12.2154C48.1368 12.1899 47.9525 12.2012 47.7758 12.2488C47.5992 12.2964 47.4337 12.3793 47.2893 12.4925C47.1448 12.6058 47.0243 12.7471 46.9348 12.9082C46.8454 13.0693 46.7887 13.2468 46.7683 13.4304H45.641C45.6604 13.0972 45.7475 12.7716 45.8968 12.4739C46.0462 12.1762 46.2546 11.9127 46.5092 11.6999C46.7637 11.4871 47.0589 11.3295 47.3763 11.2369C47.6938 11.1443 48.0267 11.1187 48.3543 11.1617C49.8662 11.1617 50.9308 12.0167 50.9308 13.2476C50.9343 13.6599 50.7978 14.061 50.5439 14.3839C50.29 14.7068 49.9342 14.9319 49.5358 15.0217V15.1131C50.0081 15.1343 50.4529 15.3435 50.7729 15.695C51.093 16.0465 51.2622 16.5117 51.2437 16.9889C51.2088 17.3319 51.1064 17.6645 50.9425 17.9671C50.7787 18.2696 50.5567 18.5361 50.2896 18.7509C50.0225 18.9657 49.7156 19.1244 49.387 19.2179C49.0583 19.3113 48.7146 19.3375 48.3758 19.295C48.0362 19.3417 47.6909 19.319 47.3603 19.228C47.0297 19.1371 46.7206 18.9798 46.4514 18.7656C46.1823 18.5514 45.9585 18.2847 45.7936 17.9813C45.6287 17.6779 45.5259 17.344 45.4915 16.9997H46.6364C46.7055 17.7417 47.3804 18.2204 48.3758 18.2204C49.3711 18.2204 50.0209 17.6827 50.0209 16.9248C50.0209 16.1561 49.4088 15.6826 48.3393 15.6826H47.2798V14.6294Z" fill="white"/>
<path d="M52.5444 17.4516C52.5444 16.3979 53.3224 15.7904 54.6998 15.7041L56.2695 15.6127V15.1074C56.2695 14.4892 55.8661 14.14 55.0831 14.14C54.4447 14.14 54.0035 14.3768 53.8754 14.7907H52.7681C52.885 13.7852 53.8226 13.1403 55.1372 13.1403C56.59 13.1403 57.4094 13.8709 57.4094 15.1074V19.1071H56.3072V18.2844H56.2167C56.0331 18.5795 55.7752 18.8201 55.4694 18.9816C55.1635 19.143 54.8208 19.2196 54.4761 19.2035C54.2328 19.2291 53.9869 19.2029 53.7543 19.1266C53.5217 19.0503 53.3075 18.9256 53.1255 18.7605C52.9435 18.5954 52.7977 18.3937 52.6977 18.1682C52.5976 17.9428 52.5454 17.6987 52.5444 17.4516ZM56.2695 16.9514V16.462L54.8543 16.5534C54.0563 16.6074 53.6943 16.8816 53.6943 17.3976C53.6943 17.9245 54.1468 18.2311 54.7689 18.2311C54.9512 18.2497 55.1354 18.2312 55.3104 18.1764C55.4854 18.1217 55.6478 18.032 55.7878 17.9126C55.9278 17.7932 56.0426 17.6466 56.1253 17.4815C56.2081 17.3163 56.2571 17.1361 56.2695 16.9514Z" fill="white"/>
<path d="M60.4446 14.2257V19.1071H59.3009V13.2533H63.1165V14.2257L60.4446 14.2257Z" fill="white"/>
<path d="M70.0475 16.1776C70.0475 18.0375 69.1163 19.2036 67.6534 19.2036C67.2943 19.2284 66.9356 19.149 66.6197 18.9748C66.3038 18.8006 66.0437 18.5388 65.87 18.2203H65.7795V21.0533H64.6359V13.2533H65.7368V14.2207H65.8223C65.999 13.8911 66.2625 13.6172 66.5836 13.4294C66.9048 13.2415 67.2711 13.147 67.6421 13.1562C69.1163 13.1562 70.0475 14.3171 70.0475 16.1776ZM68.8712 16.1776C68.8712 14.9411 68.2918 14.194 67.3229 14.194C66.3602 14.194 65.7582 14.957 65.7582 16.1827C65.7582 17.4027 66.3602 18.1664 67.3178 18.1664C68.2918 18.1664 68.8712 17.4192 68.8712 16.1776Z" fill="white"/>
<path d="M71.5707 21.2037V20.209C71.6945 20.2249 71.8192 20.2321 71.9439 20.2306C72.1876 20.2488 72.4293 20.1755 72.6228 20.0248C72.8162 19.874 72.9477 19.6564 72.9921 19.4137L73.0775 19.1287L70.98 13.2533H72.2254L73.6783 17.9029H73.7688L75.2166 13.2533H76.4294L74.269 19.3489C73.7739 20.7733 73.2259 21.2304 72.0445 21.2304C71.949 21.2304 71.6775 21.2196 71.5707 21.2037Z" fill="white"/>
<path d="M77.3204 17.4459H78.4591C78.5709 17.962 79.0498 18.2311 79.7196 18.2311C80.4812 18.2311 80.9487 17.8921 80.9487 17.3653C80.9487 16.801 80.529 16.5318 79.7196 16.5318H78.8524V15.6343H79.7045C80.3958 15.6343 80.7477 15.3658 80.7477 14.8764C80.7477 14.4466 80.4071 14.1185 79.7045 14.1185C79.0648 14.1185 78.5973 14.3927 78.5231 14.8548H77.421C77.5034 14.3238 77.7888 13.8467 78.2158 13.5261C78.6429 13.2054 79.1774 13.0669 79.7045 13.1403C81.082 13.1403 81.87 13.7694 81.87 14.7583C81.8764 15.0337 81.789 15.303 81.6225 15.5212C81.456 15.7393 81.2203 15.8931 80.955 15.9568V16.0482C81.2709 16.0893 81.5608 16.2462 81.7698 16.489C81.9787 16.7318 82.0922 17.0436 82.0886 17.3653C82.0886 18.4781 81.1511 19.2144 79.7196 19.2144C78.454 19.2143 77.426 18.6285 77.3204 17.4459Z" fill="white"/>
<path d="M83.7357 19.1071V13.2533H84.8693V17.2796H84.9598L87.6305 13.2533H88.7641V19.1071H87.6305V15.0592H87.545L84.8693 19.1071L83.7357 19.1071Z" fill="white"/>
<path d="M95.0089 14.2257H93.184V19.1071H92.0391V14.2257H90.2142V13.2533H95.0089V14.2257Z" fill="white"/>
<path d="M101.17 17.5265C101.014 18.0615 100.677 18.5241 100.218 18.8337C99.7584 19.1432 99.2062 19.28 98.6573 19.2201C98.2755 19.2302 97.8961 19.1564 97.5454 19.0036C97.1947 18.8508 96.8812 18.6227 96.6265 18.3353C96.3718 18.0478 96.1821 17.7078 96.0705 17.3388C95.9589 16.9698 95.9282 16.5807 95.9804 16.1986C95.9296 15.8152 95.9609 15.4253 96.0722 15.0552C96.1835 14.6852 96.3722 14.3436 96.6255 14.0536C96.8789 13.7636 97.191 13.5319 97.5406 13.3744C97.8903 13.2168 98.2694 13.137 98.6523 13.1403C100.265 13.1403 101.239 14.2531 101.239 16.0913V16.4944H97.1467V16.5591C97.1286 16.774 97.1552 16.9903 97.2247 17.1942C97.2943 17.3981 97.4053 17.585 97.5507 17.7429C97.696 17.9008 97.8725 18.0263 98.0687 18.1113C98.2649 18.1962 98.4766 18.2387 98.69 18.2361C98.9634 18.2692 99.2403 18.2193 99.4856 18.0929C99.7309 17.9666 99.9334 17.7694 100.067 17.5265L101.17 17.5265ZM97.1467 15.64H100.072C100.087 15.4436 100.061 15.2464 99.995 15.0609C99.9295 14.8754 99.8264 14.7059 99.6922 14.5631C99.558 14.4203 99.3957 14.3074 99.2157 14.2317C99.0358 14.156 98.8421 14.1192 98.6473 14.1235C98.4494 14.1208 98.253 14.1582 98.0697 14.2334C97.8864 14.3087 97.7199 14.4203 97.58 14.5617C97.4401 14.703 97.3297 14.8713 97.2553 15.0565C97.1808 15.2417 97.1439 15.4401 97.1467 15.64Z" fill="white"/>
<path d="M106.019 13.2533H108.631C109.765 13.2533 110.43 13.8334 110.43 14.7418C110.432 15.03 110.335 15.3101 110.157 15.5352C109.979 15.7603 109.73 15.9167 109.451 15.9783V16.0697C109.789 16.0913 110.107 16.2434 110.337 16.4945C110.568 16.7457 110.694 17.0767 110.69 17.4192C110.69 18.4405 109.93 19.107 108.658 19.107H106.019V13.2533ZM107.152 14.14V15.6558H108.286C108.977 15.6558 109.308 15.3873 109.308 14.8922C109.308 14.4358 109.02 14.14 108.413 14.14L107.152 14.14ZM107.152 16.5052V18.2203H108.508C109.184 18.2203 109.546 17.9188 109.546 17.3653C109.546 16.7794 109.137 16.5052 108.365 16.5052L107.152 16.5052Z" fill="white"/>
</g>
<defs>
<clipPath id="clip0_56_2654">
<rect width="154" height="52" fill="white"/>
</clipPath>
</defs>
</svg>
