<svg width="40" height="32" viewBox="0 0 40 32" fill="none" xmlns="http://www.w3.org/2000/svg">
<g opacity="0.75">
<g clip-path="url(#clip0_56_561)">
<path d="M-6.45264 0H46.4524V32H-6.45264V0Z" fill="#FF0000"/>
<path d="M17.6121 13.8278C17.0208 13.4575 16.3936 13.1504 15.7485 12.8975C15.193 13.7285 14.8705 14.7219 14.8705 15.7967C14.8705 16.3296 14.9512 16.8444 15.1035 17.3322C15.3722 16.709 15.7127 16.1039 16.1249 15.5258C16.5555 14.905 17.0544 14.3354 17.6121 13.8278ZM16.0352 12.5182C16.7341 12.7621 17.406 13.0782 18.0511 13.4485C18.1945 13.3221 18.3468 13.2136 18.4901 13.1053C17.8093 12.7259 17.0835 12.4189 16.3399 12.184C16.2324 12.2924 16.1249 12.4008 16.0352 12.5182ZM16.6624 11.8769C17.4688 12.0937 18.2393 12.3917 18.965 12.7801C19.1352 12.6717 19.3055 12.5723 19.4667 12.473C18.6962 12.0756 17.8809 11.7866 17.0387 11.5789C16.9057 11.6681 16.7799 11.7678 16.6624 11.8769ZM17.4239 11.335C18.311 11.5157 19.171 11.8047 19.9774 12.2021C20.7927 11.8047 21.6528 11.5157 22.5308 11.335C21.7872 10.8925 20.9092 10.6395 19.9774 10.6395C19.0456 10.6395 18.1765 10.8925 17.4239 11.335ZM22.916 11.5879C22.0752 11.7865 21.2604 12.0836 20.488 12.473C20.6573 12.5721 20.8246 12.6744 20.9898 12.7801C21.7244 12.3917 22.4949 12.0937 23.2923 11.8769C23.1759 11.7685 23.0505 11.6692 22.9161 11.5879L22.916 11.5879ZM23.6149 12.193C22.8713 12.4189 22.1545 12.7259 21.4646 13.1053C21.6177 13.2146 21.7671 13.329 21.9126 13.4485C22.5487 13.0782 23.2207 12.7621 23.9195 12.5182C23.8299 12.4008 23.7313 12.2924 23.6149 12.193ZM24.2062 12.9065C23.5594 13.1513 22.9382 13.4599 22.3516 13.8278C22.8981 14.3246 23.3909 14.8936 23.8389 15.5258C24.2355 16.0938 24.5775 16.6987 24.8602 17.3322C25.0036 16.8354 25.0842 16.3296 25.0842 15.7967C25.0842 14.7219 24.7617 13.7284 24.2062 12.9065ZM23.7672 16.4471C23.2296 15.571 22.5846 14.7942 21.8678 14.1349L21.384 14.4871C22.5935 15.6251 23.5701 17.0522 24.1883 18.7141C24.3317 18.4973 24.466 18.2715 24.5735 18.0457C24.3495 17.5038 24.0808 16.9709 23.7672 16.4471ZM20.9271 14.0988C21.0884 13.9814 21.2496 13.8639 21.4199 13.7555C21.2765 13.6291 21.1242 13.5117 20.9719 13.3943L20.4612 13.7285H20.4702C20.6225 13.8459 20.7748 13.9723 20.9271 14.0987V14.0988ZM19.9774 13.3762L20.488 13.0601L19.9774 12.744C19.8072 12.8433 19.6459 12.9517 19.4757 13.0601C19.6459 13.1594 19.8072 13.2678 19.9774 13.3762ZM19.4936 13.7285C19.3233 13.611 19.1621 13.5026 18.9918 13.3943L18.535 13.7465L19.0277 14.0897C19.1791 13.9643 19.3345 13.8438 19.4936 13.7285ZM19.9774 14.0897C19.825 14.2071 19.6728 14.3336 19.5115 14.4691C19.6728 14.5955 19.8251 14.731 19.9774 14.8664C20.1297 14.731 20.282 14.5955 20.4433 14.4691C20.2909 14.3426 20.1387 14.2071 19.9774 14.0897ZM19.9774 15.7787C19.2773 16.5398 18.6835 17.3937 18.2124 18.3167C17.8809 18.9489 17.6211 19.6082 17.4239 20.2675C18.1766 20.6921 19.0456 20.9449 19.9774 20.9449C20.9092 20.9449 21.7782 20.692 22.5308 20.2675C22.3337 19.6082 22.0739 18.9489 21.7424 18.3166C21.2586 17.3683 20.6672 16.5193 19.9774 15.7787ZM17.0208 19.2018C17.6031 17.7025 18.4633 16.3929 19.5205 15.309C19.3681 15.1645 19.2158 15.029 19.0546 14.8846C17.8272 16.0858 16.8416 17.576 16.2413 19.3011C16.4101 19.4894 16.5928 19.6645 16.7878 19.825C16.8596 19.6172 16.9402 19.4095 17.0208 19.2018ZM20.4343 15.309C21.4915 16.3929 22.3516 17.7025 22.9429 19.2018C23.0236 19.4095 23.0953 19.6172 23.1669 19.825C23.364 19.6624 23.5522 19.4908 23.7224 19.3011C23.1131 17.576 22.1276 16.0858 20.9002 14.8846L20.4343 15.309V15.309ZM15.7665 18.7141C16.3847 17.0522 17.3613 15.6342 18.5797 14.4962C18.4192 14.3707 18.2548 14.2502 18.0869 14.1349C17.3702 14.8032 16.7252 15.58 16.1876 16.4561C15.8782 16.964 15.6087 17.4955 15.3813 18.0457C15.4887 18.2805 15.6231 18.4973 15.7665 18.7141ZM20.0043 10.2241C23.158 10.2241 25.7293 12.8162 25.7293 15.9954C25.7293 19.1746 23.158 21.7668 20.0043 21.7668C16.8506 21.7668 14.2792 19.1747 14.2792 15.9954C14.2792 12.8162 16.8506 10.2241 20.0043 10.2241ZM22.5308 8.9596C22.3696 9.1493 22.1904 9.39314 22.0112 9.78146C21.9664 9.68216 21.9664 9.56477 21.9932 9.43832C22.0381 9.02285 22.1546 8.76994 22.3696 8.41768C22.4412 8.29128 22.5129 8.18285 22.5487 8.04738C22.6831 7.64098 22.6563 7.09906 22.3606 6.67458C22.4054 7.15325 22.262 7.55064 22.1008 7.79448C22.0739 7.83965 22.047 7.86674 22.0112 7.9029C21.8409 8.07448 21.6528 8.2461 21.4109 8.64349C21.2765 8.86024 21.1421 9.12216 21.0167 9.53762C20.9629 9.44733 20.945 9.33896 20.954 9.2125C20.936 8.78797 21.0077 8.5261 21.16 8.13773C21.2138 8.00226 21.2676 7.88482 21.2854 7.74029C21.3482 7.32482 21.2407 6.79197 20.8823 6.42162C20.9987 6.88226 20.9271 7.29773 20.8017 7.56872C20.7748 7.61384 20.7569 7.65 20.73 7.6861C20.5866 7.88482 20.4343 8.08349 20.2462 8.50797C20.1566 8.75186 20.058 9.03186 20.0043 9.45634C19.9326 9.37506 19.8967 9.26669 19.8878 9.14024C19.8072 8.72477 19.834 8.45384 19.9237 8.04744C19.9595 7.91192 19.9953 7.78546 19.9863 7.64093C19.9863 7.21645 19.7982 6.71069 19.3861 6.39453C19.5742 6.83709 19.5653 7.26162 19.4846 7.55064C19.4667 7.58674 19.4488 7.63192 19.4308 7.66802C19.3233 7.89384 19.1979 8.11064 19.0815 8.56221C19.0277 8.81512 18.974 9.11314 18.9829 9.53768C18.9112 9.46541 18.8575 9.36605 18.8216 9.24861C18.6783 8.84221 18.6603 8.58029 18.6962 8.15581C18.7052 8.01128 18.7141 7.88482 18.6962 7.74936C18.6245 7.32482 18.3558 6.85517 17.9078 6.61133C18.1586 7.01773 18.2124 7.44226 18.1765 7.73128L18.1497 7.86674C18.078 8.10157 17.9884 8.3364 17.9436 8.80605C17.9256 9.05896 17.9168 9.35698 17.9974 9.78152C17.9078 9.71826 17.845 9.62797 17.7913 9.5196C17.5853 9.14024 17.5315 8.87832 17.4956 8.46285C17.4866 8.31832 17.4777 8.19192 17.4239 8.05645C17.2986 7.65 16.9581 7.22552 16.4743 7.0629C16.7879 7.41517 16.9133 7.82157 16.9133 8.11965C16.9133 8.16482 16.9133 8.20994 16.9043 8.25512C16.8685 8.49896 16.8237 8.75186 16.8506 9.2125C16.8774 9.46541 16.9133 9.76344 17.0566 10.1698C16.9581 10.1247 16.8774 10.0434 16.8057 9.94408C16.546 9.60989 16.4564 9.35704 16.3578 8.95058C16.322 8.80605 16.2951 8.68866 16.2234 8.5532C16.0352 8.18285 15.6321 7.81256 15.1304 7.72226C15.4887 8.0293 15.6769 8.41773 15.7307 8.70669C15.7396 8.75186 15.7396 8.79704 15.7396 8.84216C15.7486 9.08605 15.7396 9.33896 15.8382 9.7996C15.9009 10.0434 15.9815 10.3325 16.1876 10.7027C16.089 10.6757 15.9994 10.6125 15.9098 10.5221C15.5962 10.2331 15.4619 9.99826 15.3095 9.60989C15.2558 9.47442 15.202 9.35704 15.1214 9.2396C14.8705 8.90541 14.4225 8.60738 13.903 8.59832C14.3151 8.84221 14.557 9.18541 14.6555 9.46541L14.6824 9.60088C14.7272 9.84472 14.7541 10.0976 14.9243 10.5312C15.0228 10.766 15.1572 11.0369 15.417 11.3712C15.3095 11.3621 15.211 11.3079 15.1125 11.2357C14.763 11.0008 14.5928 10.7841 14.3688 10.4318C14.2971 10.3054 14.2345 10.197 14.1269 10.0976C13.8313 9.7996 13.3385 9.57378 12.8278 9.64605C13.2668 9.82669 13.5625 10.1337 13.7058 10.3957C13.7238 10.4318 13.7416 10.477 13.7596 10.5221C13.8402 10.7479 13.903 10.9918 14.1359 11.3982C14.2703 11.615 14.4405 11.8589 14.7541 12.1569C14.6466 12.1569 14.539 12.1208 14.4315 12.0666C14.0463 11.8859 13.8492 11.7053 13.5804 11.3892C13.4818 11.2808 13.4012 11.1815 13.2848 11.0911C12.9443 10.8473 12.4246 10.7027 11.9319 10.8563C12.3977 10.9647 12.7382 11.2176 12.9084 11.4524C12.9443 11.4886 12.9622 11.5247 12.9801 11.5698C13.0966 11.7866 13.2041 12.0214 13.4998 12.3737C13.661 12.5723 13.8671 12.7891 14.2165 13.033C14.118 13.0511 14.0105 13.033 13.885 12.9878C13.4819 12.8794 13.2579 12.7259 12.9443 12.455C12.8368 12.3646 12.7382 12.2833 12.6128 12.2111C12.2365 12.0214 11.6989 11.9672 11.233 12.193C11.7079 12.2201 12.0842 12.4279 12.2992 12.6266C12.3261 12.6627 12.3529 12.6898 12.3798 12.735C12.5322 12.9246 12.6666 13.1414 13.0159 13.4485C13.2041 13.611 13.446 13.7917 13.8312 13.9814C13.7327 14.0175 13.6163 14.0175 13.4998 13.9904C13.0786 13.9452 12.8368 13.8278 12.4784 13.611C12.353 13.5388 12.2454 13.4665 12.1111 13.4304C11.7079 13.2949 11.1793 13.322 10.7582 13.6201C11.2241 13.5749 11.6272 13.7194 11.8692 13.8819C11.905 13.9091 11.9408 13.9362 11.9677 13.9723C12.1469 14.1439 12.3171 14.3336 12.7024 14.5775C12.9174 14.7129 13.1862 14.8575 13.5893 14.9748C13.4998 15.029 13.3923 15.0471 13.2668 15.0471C12.8457 15.0562 12.5859 14.9839 12.2007 14.8303C12.0663 14.7761 11.9498 14.7219 11.8064 14.7039C11.3943 14.6407 10.8657 14.749 10.4984 15.1103C10.9553 14.9929 11.3764 15.0651 11.6362 15.1916C11.681 15.2187 11.7169 15.2368 11.7527 15.2639C11.9498 15.4084 12.1469 15.5619 12.5769 15.7516C12.8099 15.8419 13.0876 15.9413 13.5087 15.9954C13.4281 16.0677 13.3206 16.1038 13.2041 16.1129C12.783 16.2032 12.5232 16.1671 12.1111 16.0767C11.9767 16.0406 11.8512 16.0135 11.7079 16.0135C11.2868 16.0135 10.7851 16.2032 10.4805 16.6186C10.9105 16.429 11.3316 16.438 11.6183 16.5193C11.6631 16.5374 11.6989 16.5554 11.7437 16.5735C11.9587 16.6819 12.1827 16.8083 12.6307 16.9257C12.8726 16.9799 13.1683 17.0341 13.5893 17.0251C13.5177 17.0974 13.4191 17.1515 13.3026 17.1877C12.9084 17.3322 12.6397 17.3503 12.2276 17.3141C12.0842 17.305 11.9588 17.296 11.8154 17.3141C11.4033 17.3864 10.9374 17.6573 10.6955 18.1179C11.0897 17.856 11.5107 17.8018 11.8065 17.8379L11.9319 17.865C12.1648 17.9464 12.3977 18.0276 12.8636 18.0728C13.1145 18.0909 13.4101 18.0999 13.8313 18.0186C13.7685 18.1089 13.679 18.1722 13.5714 18.2263C13.2041 18.434 12.9353 18.4882 12.5232 18.5244C12.3798 18.5424 12.2544 18.5515 12.12 18.5967C11.7169 18.7231 11.3047 19.0663 11.1345 19.554C11.4929 19.2379 11.896 19.1205 12.1917 19.1114C12.2365 19.1114 12.2813 19.1114 12.3261 19.1205C12.559 19.1566 12.8099 19.2018 13.2758 19.1747C13.5266 19.1566 13.8223 19.1114 14.2165 18.967C14.1807 19.0663 14.1 19.1476 13.9925 19.2199C13.661 19.4817 13.4102 19.5721 13.007 19.6714C12.8726 19.7075 12.7472 19.7346 12.6217 19.8069C12.2454 19.9966 11.8871 20.403 11.7975 20.9088C12.0931 20.5475 12.4784 20.3578 12.7651 20.3036C12.8099 20.2946 12.8547 20.2946 12.8995 20.2946C13.1414 20.2856 13.4012 20.2946 13.8491 20.1953C14.0911 20.1321 14.3778 20.0507 14.7541 19.8431C14.7272 19.9424 14.6555 20.0417 14.5659 20.1231C14.2792 20.4392 14.0463 20.5746 13.661 20.7282C13.5356 20.7914 13.4191 20.8366 13.3026 20.9178C12.9622 21.1707 12.6666 21.6224 12.6576 22.1462C12.8995 21.7307 13.2489 21.4868 13.5266 21.3875L13.652 21.3604C13.894 21.3152 14.1448 21.2881 14.5749 21.1166C14.8078 21.0172 15.0766 20.8817 15.417 20.6288C15.3992 20.7282 15.3543 20.8275 15.2737 20.9269C15.0408 21.2791 14.8347 21.4507 14.4763 21.6765C14.3598 21.7488 14.2523 21.812 14.1448 21.9204C13.8492 22.2184 13.6341 22.7152 13.7058 23.23C13.8761 22.7874 14.1807 22.4894 14.4405 22.3449C14.4853 22.3268 14.5211 22.3088 14.5659 22.2907C14.7988 22.2184 15.0408 22.1462 15.435 21.9113C15.65 21.7759 15.8919 21.6042 16.1876 21.2881C16.1965 21.3965 16.1607 21.5049 16.098 21.6133C15.9188 22.0017 15.7396 22.2003 15.426 22.4713C15.3185 22.5707 15.22 22.652 15.1393 22.7694C14.8974 23.1126 14.7541 23.6364 14.9064 24.1332C15.0049 23.6635 15.2558 23.3203 15.4977 23.1487C15.5335 23.1216 15.5694 23.0945 15.6052 23.0765C15.8202 22.9591 16.0532 22.8506 16.4116 22.5526C16.5997 22.39 16.8147 22.1823 17.0566 21.83C17.0746 21.9294 17.0566 22.0468 17.0208 22.1642C16.9043 22.5706 16.761 22.7964 16.4832 23.1126C16.3936 23.221 16.313 23.3203 16.2503 23.4558C16.0622 23.8351 15.9994 24.368 16.2234 24.8377C16.2592 24.359 16.4564 23.9797 16.6624 23.7719C16.6893 23.7358 16.7251 23.7087 16.761 23.6816C16.9581 23.5281 17.1641 23.3926 17.4688 23.0403C17.63 22.8506 17.8092 22.6068 17.9974 22.2185C18.0332 22.3178 18.0332 22.4352 18.0153 22.5526C17.9615 22.9771 17.854 23.221 17.639 23.5823C17.5584 23.7087 17.4956 23.8171 17.4508 23.9526C17.3254 24.359 17.3523 24.9009 17.6479 25.3254C17.6031 24.8467 17.7376 24.4403 17.9078 24.1964C17.9346 24.1603 17.9615 24.1242 17.9884 24.0971C18.1586 23.9165 18.3468 23.7448 18.5976 23.3564C18.723 23.1397 18.8664 22.8687 18.9829 22.4623C19.0366 22.5526 19.0546 22.661 19.0546 22.7874C19.0725 23.212 19.0008 23.4738 18.8395 23.8622C18.7858 23.9977 18.741 24.1151 18.7141 24.2596C18.6514 24.6751 18.7589 25.208 19.1173 25.5783C19.0008 25.1177 19.0725 24.6931 19.2069 24.4312C19.2248 24.3861 19.2427 24.3499 19.2696 24.3138C19.413 24.1151 19.5742 23.9164 19.7534 23.4829C19.852 23.2481 19.9505 22.9681 20.0043 22.5436C20.067 22.6249 20.1028 22.7332 20.1207 22.8506C20.2014 23.2752 20.1745 23.537 20.0759 23.9525C20.0401 24.088 20.0132 24.2145 20.0132 24.359C20.0132 24.7835 20.2103 25.2892 20.6225 25.5963C20.4343 25.1628 20.4343 24.7383 20.5239 24.4493C20.5329 24.4041 20.5508 24.368 20.5687 24.3229C20.6762 24.1061 20.8017 23.8803 20.9181 23.4287C20.9719 23.1848 21.0256 22.8868 21.0167 22.4623C21.0973 22.5345 21.1421 22.6339 21.1779 22.7513C21.3303 23.1487 21.3392 23.4196 21.3123 23.8441C21.2944 23.9797 21.2854 24.1061 21.3123 24.2506C21.3751 24.6751 21.6438 25.1448 22.1008 25.3886C21.8499 24.9822 21.7872 24.5577 21.832 24.2687C21.832 24.2235 21.8409 24.1784 21.8589 24.1332C21.9305 23.8984 22.0201 23.6635 22.0649 23.1939C22.0739 22.941 22.0828 22.643 22.0112 22.2184C22.0918 22.2817 22.1635 22.372 22.2172 22.4803C22.4233 22.8506 22.477 23.1216 22.5129 23.5371C22.5219 23.6816 22.5308 23.808 22.5756 23.9435C22.71 24.3499 23.0415 24.7654 23.5343 24.937C23.2207 24.5758 23.0953 24.1693 23.0863 23.8713C23.0863 23.8261 23.0863 23.7809 23.0953 23.7358C23.1311 23.501 23.1848 23.2481 23.149 22.7784C23.1311 22.5255 23.0863 22.2275 22.9519 21.83C23.0415 21.8752 23.1221 21.9475 23.1938 22.0559C23.4536 22.39 23.5521 22.6429 23.6507 23.0494C23.6776 23.1848 23.7135 23.3113 23.7762 23.4377C23.9733 23.8171 24.3675 24.1784 24.8782 24.2687C24.5108 23.9706 24.3227 23.5823 24.2689 23.2932C24.26 23.2481 24.26 23.2029 24.26 23.1577C24.26 22.9139 24.269 22.661 24.1703 22.2004C24.1077 21.9565 24.0181 21.6675 23.812 21.2881C23.9195 21.3152 24.0091 21.3875 24.0898 21.4778C24.4033 21.7668 24.5377 22.0017 24.699 22.39C24.7527 22.5164 24.7975 22.6339 24.8871 22.7513C25.138 23.0945 25.586 23.3926 26.0966 23.4016C25.6935 23.1577 25.4515 22.8055 25.353 22.5255C25.3351 22.4803 25.3261 22.4442 25.3172 22.3991C25.2814 22.1552 25.2455 21.9023 25.0753 21.4688C24.9767 21.2339 24.8513 20.963 24.5915 20.6288C24.699 20.6378 24.7975 20.683 24.8961 20.7643C25.2455 20.9991 25.4157 21.2069 25.6307 21.5681C25.7024 21.6856 25.7741 21.803 25.8727 21.9023C26.1683 22.2003 26.6611 22.4171 27.1718 22.3449C26.7327 22.1733 26.4371 21.8662 26.3027 21.6042C26.2758 21.5591 26.2579 21.523 26.2489 21.4778C26.1683 21.243 26.0966 20.9991 25.8637 20.6017C25.7293 20.3849 25.5591 20.1411 25.2545 19.8431C25.353 19.8431 25.4605 19.8702 25.577 19.9334C25.9533 20.114 26.1594 20.2946 26.4281 20.6107C26.5177 20.7191 26.5984 20.8185 26.7149 20.8998C27.0553 21.1527 27.5749 21.2881 28.0677 21.1437C27.6108 21.0353 27.2703 20.7824 27.0911 20.5385C27.0643 20.5024 27.0374 20.4663 27.0194 20.4301C26.903 20.2134 26.8044 19.9785 26.5088 19.6173C26.3386 19.4276 26.1325 19.2109 25.7831 18.967C25.8906 18.9489 25.9981 18.967 26.1146 19.0031C26.5177 19.1205 26.7417 19.274 27.0642 19.545C27.1718 19.6353 27.2703 19.7166 27.3958 19.7798C27.772 19.9695 28.3006 20.0327 28.7665 19.8069C28.2917 19.7708 27.9243 19.5721 27.7093 19.3643C27.6735 19.3372 27.6466 19.3011 27.6197 19.265C27.4763 19.0663 27.333 18.8586 26.9926 18.5515C26.7954 18.3889 26.5536 18.2083 26.1773 18.0186C26.2758 17.9825 26.3833 17.9825 26.5088 18.0006C26.9209 18.0547 27.1718 18.1631 27.5212 18.3889C27.6466 18.4611 27.7541 18.5244 27.8885 18.5696C28.2917 18.696 28.8292 18.6689 29.2503 18.3709C28.7755 18.416 28.3813 18.2805 28.1394 18.1089L28.0318 18.0277C27.8616 17.856 27.6914 17.6664 27.2972 17.4135C27.0822 17.2871 26.8223 17.1425 26.4102 17.0251C26.4998 16.9709 26.6163 16.9528 26.7328 16.9528C27.1628 16.9348 27.4226 17.007 27.7989 17.1696C27.9333 17.2238 28.0498 17.2689 28.1931 17.296C28.6053 17.3593 29.1338 17.2509 29.5012 16.8896C29.0443 17.007 28.6321 16.9348 28.3633 16.7993C28.3275 16.7812 28.2827 16.7632 28.2469 16.7361C28.0498 16.5915 27.8527 16.438 27.4316 16.2483C27.1986 16.1581 26.9119 16.0587 26.4909 15.9954C26.5715 15.9322 26.679 15.8961 26.8044 15.878C27.2166 15.7968 27.4853 15.8239 27.8885 15.9232C28.0229 15.9593 28.1483 15.9864 28.2917 15.9864C28.7128 15.9864 29.2145 15.7877 29.5281 15.3813C29.0891 15.5619 28.668 15.5619 28.3902 15.4716C28.3455 15.4625 28.3006 15.4445 28.2648 15.4264C28.0408 15.3181 27.8258 15.1916 27.3778 15.0742C27.1269 15.02 26.8403 14.9658 26.4102 14.9748C26.4819 14.8936 26.5804 14.8484 26.6969 14.8123C27.1001 14.6587 27.3688 14.6497 27.781 14.6768C27.9243 14.6949 28.0498 14.7039 28.1931 14.6768C28.6052 14.6136 29.0712 14.3426 29.3131 13.882C28.9099 14.1349 28.4978 14.1981 28.2021 14.162C28.1573 14.1529 28.1125 14.1439 28.0677 14.1258C27.8348 14.0536 27.6018 13.9633 27.1449 13.9181C26.894 13.909 26.5894 13.9001 26.1772 13.9814C26.2311 13.891 26.3206 13.8187 26.4371 13.7646C26.8044 13.5568 27.0643 13.5027 27.4764 13.4665C27.6198 13.4575 27.7451 13.4485 27.8795 13.4033C28.2827 13.2678 28.7038 12.9336 28.8651 12.4369C28.5157 12.753 28.1125 12.8794 27.8168 12.8885C27.772 12.8885 27.7273 12.8885 27.6824 12.8794C27.4405 12.8433 27.1897 12.7891 26.7328 12.8253C26.4819 12.8433 26.1862 12.8885 25.7831 13.033C25.8279 12.9336 25.9085 12.8523 26.0071 12.7801C26.3386 12.5182 26.5894 12.4189 26.9926 12.3195C27.129 12.2952 27.2615 12.2527 27.3868 12.193C27.7541 11.9943 28.1215 11.5969 28.211 11.0821C27.9064 11.4524 27.5301 11.6421 27.2344 11.6963C27.1897 11.7053 27.1449 11.7053 27.1001 11.7053C26.8582 11.7053 26.6073 11.6962 26.1594 11.7957C25.9085 11.8589 25.6218 11.9491 25.2545 12.1569C25.2814 12.0485 25.344 11.9582 25.4337 11.8769C25.7204 11.5608 25.9533 11.4253 26.3386 11.2627C26.4729 11.2086 26.5894 11.1634 26.7059 11.0731C27.0374 10.8202 27.333 10.3686 27.342 9.85378C27.1001 10.2602 26.7596 10.5041 26.4819 10.6034C26.4371 10.6215 26.3923 10.6305 26.3475 10.6395C26.1056 10.6847 25.8547 10.7118 25.4247 10.8834C25.2007 10.9827 24.9319 11.1092 24.5914 11.3711C24.6004 11.2718 24.6542 11.1634 24.7258 11.064C24.9588 10.7118 25.1738 10.5402 25.5232 10.3234C25.6486 10.2512 25.7562 10.1789 25.8547 10.0795C26.1504 9.78152 26.3744 9.28477 26.3027 8.76994C26.1235 9.2125 25.8189 9.51053 25.5591 9.65506C25.5232 9.67314 25.4784 9.69117 25.4426 9.70024C25.2097 9.78152 24.9677 9.85378 24.5646 10.0886C24.3495 10.2241 24.1077 10.3957 23.812 10.7027C23.812 10.6034 23.8478 10.495 23.9016 10.3866C24.0808 9.99826 24.26 9.7996 24.5735 9.5196C24.681 9.42925 24.7796 9.34797 24.8692 9.23053C25.1111 8.88733 25.2545 8.36349 25.1022 7.8668C24.9946 8.32738 24.7438 8.67058 24.5108 8.85122C24.475 8.87832 24.4392 8.90541 24.3943 8.92349C24.1793 9.04088 23.9464 9.14024 23.597 9.43832C23.3999 9.60989 23.1848 9.81762 22.9519 10.1699C22.925 10.0705 22.9429 9.95314 22.9878 9.8357C23.1042 9.4293 23.2475 9.20349 23.5163 8.87837C23.606 8.76994 23.6955 8.6796 23.7582 8.54413C23.9464 8.16482 24.0001 7.63192 23.7762 7.16226C23.7493 7.64093 23.5521 8.01128 23.3461 8.22802C23.3103 8.26413 23.2834 8.29122 23.2476 8.31837C23.0505 8.4629 22.8354 8.60738 22.5308 8.9596Z" fill="#FFFF00"/>
</g>
</g>
<defs>
<clipPath id="clip0_56_561">
<rect width="40" height="32" rx="8" fill="white"/>
</clipPath>
</defs>
</svg>
