<svg width="320" height="134" viewBox="0 0 320 134" fill="none" xmlns="http://www.w3.org/2000/svg">
<path d="M113.008 19.4092V46.1578H112.31H102.927V36.7456V29.5215H95.725H81.4678L71.3865 19.4092L66.4565 14.3009L61.2013 19.4092L51.12 29.5215H36.8629H29.431V36.9762V51.2771L19.3497 61.3894L14.2571 66.6608L19.3497 71.9321L29.431 82.0444V96.3453V103.569H36.633H50.8901L60.9714 113.682L66.2266 118.79L71.1565 113.682L72.7326 112.101L81.2378 103.569H95.495H102.927V96.1147V94.1096H104.926H113.008V113.682H85.5185L80.0238 119.251L66.2266 133.091L46.77 113.682H19.3497V86.1772L0 66.6608L19.3497 47.1444V19.4092H46.9999L66.4565 0L85.6993 19.4092H113.008Z" fill="url(#paint0_linear_56_634)"/>
<path d="M127.011 100.519C127.011 101.015 126.875 101.418 126.604 101.729C126.34 102.039 125.983 102.268 125.533 102.415C125.083 102.563 124.587 102.636 124.044 102.636H119.983V94.3745H124.777C125.165 94.3745 125.498 94.4793 125.777 94.6887C126.064 94.8904 126.282 95.1542 126.429 95.48C126.584 95.8058 126.662 96.1433 126.662 96.4924C126.662 96.8725 126.561 97.241 126.359 97.5978C126.165 97.9547 125.871 98.2223 125.475 98.4007C125.948 98.5404 126.32 98.7847 126.592 99.1338C126.871 99.4829 127.011 99.9445 127.011 100.519ZM124.707 100.053C124.707 99.9134 124.68 99.7932 124.625 99.6924C124.579 99.5837 124.513 99.4984 124.428 99.4364C124.342 99.3743 124.241 99.3433 124.125 99.3433H122.252V100.728H124.044C124.168 100.728 124.28 100.701 124.381 100.647C124.482 100.592 124.559 100.515 124.614 100.414C124.676 100.313 124.707 100.193 124.707 100.053ZM122.252 96.3062V97.5745H123.799C123.9 97.5745 123.997 97.559 124.09 97.528C124.183 97.4892 124.261 97.4233 124.323 97.3302C124.385 97.2371 124.416 97.1052 124.416 96.9345C124.416 96.7794 124.389 96.6591 124.335 96.5738C124.288 96.4807 124.222 96.4148 124.137 96.376C124.059 96.3294 123.97 96.3062 123.869 96.3062H122.252ZM127.766 98.4356C127.766 97.9314 127.86 97.4388 128.046 96.9578C128.24 96.4691 128.519 96.0269 128.884 95.6313C129.248 95.2356 129.69 94.9214 130.21 94.6887C130.738 94.4482 131.331 94.328 131.99 94.328C132.782 94.328 133.472 94.4948 134.062 94.8284C134.651 95.1542 135.09 95.5886 135.377 96.1316L133.643 97.3651C133.542 97.0936 133.395 96.8841 133.201 96.7367C133.014 96.5893 132.809 96.4885 132.584 96.4342C132.367 96.3721 132.153 96.3411 131.944 96.3411C131.618 96.3411 131.335 96.407 131.094 96.5389C130.862 96.663 130.668 96.8298 130.513 97.0393C130.365 97.2487 130.253 97.4814 130.175 97.7374C130.105 97.9934 130.07 98.2494 130.07 98.5054C130.07 98.7925 130.113 99.0679 130.198 99.3316C130.284 99.5954 130.408 99.832 130.571 100.041C130.734 100.243 130.932 100.402 131.164 100.519C131.405 100.635 131.672 100.693 131.967 100.693C132.177 100.693 132.39 100.662 132.607 100.6C132.824 100.53 133.022 100.422 133.201 100.274C133.379 100.127 133.515 99.929 133.608 99.6807L135.458 100.786C135.295 101.19 135.024 101.535 134.644 101.822C134.263 102.109 133.833 102.33 133.352 102.485C132.871 102.632 132.394 102.706 131.921 102.706C131.308 102.706 130.745 102.586 130.233 102.345C129.729 102.097 129.291 101.771 128.918 101.368C128.554 100.957 128.271 100.499 128.069 99.9949C127.867 99.4829 127.766 98.9631 127.766 98.4356ZM142.357 100.658V102.636H136.469V94.3745H142.253V96.3527H138.738V97.5164H141.741V99.3549H138.738V100.658H142.357ZM146.48 102.636V94.3745H151.868V96.3527H148.749V102.636H146.48ZM156.793 102.706C156.164 102.706 155.594 102.59 155.082 102.357C154.57 102.117 154.128 101.799 153.755 101.403C153.391 101 153.108 100.55 152.906 100.053C152.712 99.5488 152.615 99.0291 152.615 98.4938C152.615 97.943 152.72 97.4194 152.929 96.9229C153.139 96.4264 153.43 95.9842 153.802 95.5964C154.182 95.2007 154.628 94.8904 155.14 94.6654C155.66 94.4405 156.226 94.328 156.839 94.328C157.467 94.328 158.038 94.4482 158.55 94.6887C159.062 94.9214 159.5 95.2395 159.865 95.6429C160.229 96.0463 160.508 96.5001 160.702 97.0044C160.904 97.5008 161.005 98.0128 161.005 98.5404C161.005 99.0834 160.9 99.6031 160.691 100.1C160.489 100.596 160.198 101.042 159.818 101.438C159.446 101.826 159.003 102.136 158.491 102.369C157.979 102.594 157.413 102.706 156.793 102.706ZM154.919 98.5171C154.919 98.7964 154.958 99.0679 155.035 99.3316C155.113 99.5876 155.229 99.8204 155.385 100.03C155.54 100.232 155.734 100.394 155.966 100.519C156.207 100.635 156.49 100.693 156.816 100.693C157.142 100.693 157.425 100.631 157.665 100.507C157.906 100.383 158.1 100.216 158.247 100.007C158.402 99.7893 158.515 99.5527 158.585 99.2967C158.662 99.033 158.701 98.7653 158.701 98.4938C158.701 98.2145 158.662 97.9469 158.585 97.6909C158.507 97.4349 158.391 97.206 158.235 97.0044C158.08 96.7949 157.882 96.632 157.642 96.5156C157.401 96.3993 157.122 96.3411 156.804 96.3411C156.478 96.3411 156.195 96.4031 155.955 96.5273C155.722 96.6514 155.528 96.8182 155.373 97.0276C155.218 97.2293 155.101 97.462 155.024 97.7258C154.954 97.9818 154.919 98.2456 154.919 98.5171ZM161.716 98.4356C161.716 97.9314 161.81 97.4388 161.996 96.9578C162.19 96.4691 162.469 96.0269 162.834 95.6313C163.198 95.2356 163.64 94.9214 164.16 94.6887C164.688 94.4482 165.281 94.328 165.94 94.328C166.732 94.328 167.422 94.4948 168.012 94.8284C168.601 95.1542 169.04 95.5886 169.327 96.1316L167.593 97.3651C167.492 97.0936 167.345 96.8841 167.151 96.7367C166.964 96.5893 166.759 96.4885 166.534 96.4342C166.317 96.3721 166.103 96.3411 165.894 96.3411C165.568 96.3411 165.285 96.407 165.044 96.5389C164.812 96.663 164.618 96.8298 164.463 97.0393C164.315 97.2487 164.203 97.4814 164.125 97.7374C164.055 97.9934 164.02 98.2494 164.02 98.5054C164.02 98.7925 164.063 99.0679 164.148 99.3316C164.234 99.5954 164.358 99.832 164.521 100.041C164.684 100.243 164.882 100.402 165.114 100.519C165.355 100.635 165.622 100.693 165.917 100.693C166.127 100.693 166.34 100.662 166.557 100.6C166.774 100.53 166.972 100.422 167.151 100.274C167.329 100.127 167.465 99.929 167.558 99.6807L169.408 100.786C169.245 101.19 168.974 101.535 168.594 101.822C168.213 102.109 167.783 102.33 167.302 102.485C166.821 102.632 166.344 102.706 165.871 102.706C165.258 102.706 164.695 102.586 164.183 102.345C163.679 102.097 163.241 101.771 162.868 101.368C162.504 100.957 162.221 100.499 162.019 99.9949C161.817 99.4829 161.716 98.9631 161.716 98.4356ZM173.923 102.718V100.856H174.749C174.951 100.856 175.106 100.821 175.215 100.751C175.331 100.674 175.409 100.55 175.448 100.379L175.471 100.263L172.41 94.3745H174.912L176.483 97.9702L177.926 94.3745H180.312L177.158 101.438C176.918 101.927 176.631 102.264 176.297 102.45C175.963 102.629 175.525 102.718 174.982 102.718H173.923ZM180.657 98.4356C180.657 97.9314 180.75 97.4388 180.936 96.9578C181.13 96.4691 181.409 96.0269 181.774 95.6313C182.139 95.2356 182.581 94.9214 183.101 94.6887C183.628 94.4482 184.221 94.328 184.881 94.328C185.672 94.328 186.363 94.4948 186.952 94.8284C187.542 95.1542 187.98 95.5886 188.267 96.1316L186.533 97.3651C186.432 97.0936 186.285 96.8841 186.091 96.7367C185.905 96.5893 185.699 96.4885 185.474 96.4342C185.257 96.3721 185.044 96.3411 184.834 96.3411C184.509 96.3411 184.225 96.407 183.985 96.5389C183.752 96.663 183.558 96.8298 183.403 97.0393C183.256 97.2487 183.143 97.4814 183.066 97.7374C182.996 97.9934 182.961 98.2494 182.961 98.5054C182.961 98.7925 183.004 99.0679 183.089 99.3316C183.174 99.5954 183.298 99.832 183.461 100.041C183.624 100.243 183.822 100.402 184.055 100.519C184.295 100.635 184.563 100.693 184.858 100.693C185.067 100.693 185.28 100.662 185.498 100.6C185.715 100.53 185.913 100.422 186.091 100.274C186.269 100.127 186.405 99.929 186.498 99.6807L188.349 100.786C188.186 101.19 187.914 101.535 187.534 101.822C187.154 102.109 186.723 102.33 186.242 102.485C185.761 102.632 185.284 102.706 184.811 102.706C184.198 102.706 183.636 102.586 183.124 102.345C182.62 102.097 182.181 101.771 181.809 101.368C181.444 100.957 181.161 100.499 180.959 99.9949C180.758 99.4829 180.657 98.9631 180.657 98.4356ZM194.363 102.636V96.3527H192.758L192.711 97.4698C192.665 98.5248 192.564 99.3937 192.409 100.076C192.261 100.751 192.04 101.283 191.745 101.671C191.45 102.051 191.07 102.322 190.605 102.485C190.147 102.64 189.593 102.718 188.941 102.718V100.763C189.205 100.763 189.43 100.716 189.616 100.623C189.81 100.522 189.969 100.336 190.093 100.065C190.225 99.7854 190.326 99.3859 190.395 98.8662C190.473 98.3387 190.527 97.6482 190.558 96.7949L190.651 94.3745H196.633V102.636H194.363ZM198.943 102.718V100.856H199.769C199.971 100.856 200.126 100.821 200.235 100.751C200.351 100.674 200.429 100.55 200.468 100.379L200.491 100.263L197.43 94.3745H199.932L201.503 97.9702L202.946 94.3745H205.332L202.178 101.438C201.938 101.927 201.651 102.264 201.317 102.45C200.983 102.629 200.545 102.718 200.002 102.718H198.943ZM206.177 102.636V94.3745H211.565V96.3527H208.446V102.636H206.177ZM212.813 102.636V94.3745H215.082V99.4014L218.131 94.3745H220.248V102.636H217.979V97.6094L214.965 102.636H212.813ZM224.73 102.636V94.3745H228.291C228.694 94.3745 229.067 94.456 229.408 94.6189C229.749 94.7818 230.044 95.0029 230.292 95.2822C230.541 95.5537 230.731 95.8601 230.863 96.2014C231.002 96.5428 231.072 96.888 231.072 97.2371C231.072 97.7258 230.956 98.1874 230.723 98.6218C230.498 99.0562 230.18 99.4131 229.769 99.6924C229.365 99.9639 228.892 100.1 228.349 100.1H226.999V102.636H224.73ZM226.999 98.1214H228.198C228.291 98.1214 228.38 98.0943 228.466 98.04C228.551 97.9857 228.621 97.8926 228.675 97.7607C228.737 97.6288 228.768 97.4543 228.768 97.2371C228.768 97.0044 228.733 96.8259 228.663 96.7018C228.601 96.5699 228.52 96.4807 228.419 96.4342C228.326 96.3799 228.233 96.3527 228.14 96.3527H226.999V98.1214ZM235.908 102.706C235.279 102.706 234.709 102.59 234.197 102.357C233.685 102.117 233.243 101.799 232.87 101.403C232.506 101 232.223 100.55 232.021 100.053C231.827 99.5488 231.73 99.0291 231.73 98.4938C231.73 97.943 231.835 97.4194 232.044 96.9229C232.254 96.4264 232.545 95.9842 232.917 95.5964C233.297 95.2007 233.743 94.8904 234.255 94.6654C234.775 94.4405 235.341 94.328 235.954 94.328C236.582 94.328 237.153 94.4482 237.665 94.6887C238.177 94.9214 238.615 95.2395 238.98 95.6429C239.344 96.0463 239.623 96.5001 239.817 97.0044C240.019 97.5008 240.12 98.0128 240.12 98.5404C240.12 99.0834 240.015 99.6031 239.806 100.1C239.604 100.596 239.313 101.042 238.933 101.438C238.561 101.826 238.118 102.136 237.606 102.369C237.094 102.594 236.528 102.706 235.908 102.706ZM234.034 98.5171C234.034 98.7964 234.073 99.0679 234.15 99.3316C234.228 99.5876 234.344 99.8204 234.5 100.03C234.655 100.232 234.849 100.394 235.081 100.519C235.322 100.635 235.605 100.693 235.931 100.693C236.257 100.693 236.54 100.631 236.78 100.507C237.021 100.383 237.215 100.216 237.362 100.007C237.517 99.7893 237.63 99.5527 237.7 99.2967C237.777 99.033 237.816 98.7653 237.816 98.4938C237.816 98.2145 237.777 97.9469 237.7 97.6909C237.622 97.4349 237.506 97.206 237.35 97.0044C237.195 96.7949 236.997 96.632 236.757 96.5156C236.516 96.3993 236.237 96.3411 235.919 96.3411C235.593 96.3411 235.31 96.4031 235.07 96.5273C234.837 96.6514 234.643 96.8182 234.488 97.0276C234.333 97.2293 234.216 97.462 234.139 97.7258C234.069 97.9818 234.034 98.2456 234.034 98.5171ZM240.831 98.4356C240.831 97.9314 240.925 97.4388 241.111 96.9578C241.305 96.4691 241.584 96.0269 241.949 95.6313C242.313 95.2356 242.755 94.9214 243.275 94.6887C243.803 94.4482 244.396 94.328 245.055 94.328C245.847 94.328 246.537 94.4948 247.127 94.8284C247.716 95.1542 248.155 95.5886 248.442 96.1316L246.708 97.3651C246.607 97.0936 246.46 96.8841 246.266 96.7367C246.079 96.5893 245.874 96.4885 245.649 96.4342C245.432 96.3721 245.218 96.3411 245.009 96.3411C244.683 96.3411 244.4 96.407 244.159 96.5389C243.927 96.663 243.733 96.8298 243.578 97.0393C243.43 97.2487 243.318 97.4814 243.24 97.7374C243.17 97.9934 243.135 98.2494 243.135 98.5054C243.135 98.7925 243.178 99.0679 243.263 99.3316C243.349 99.5954 243.473 99.832 243.636 100.041C243.799 100.243 243.997 100.402 244.229 100.519C244.47 100.635 244.737 100.693 245.032 100.693C245.242 100.693 245.455 100.662 245.672 100.6C245.889 100.53 246.087 100.422 246.266 100.274C246.444 100.127 246.58 99.929 246.673 99.6807L248.523 100.786C248.36 101.19 248.089 101.535 247.709 101.822C247.328 102.109 246.898 102.33 246.417 102.485C245.936 102.632 245.459 102.706 244.986 102.706C244.373 102.706 243.81 102.586 243.298 102.345C242.794 102.097 242.356 101.771 241.983 101.368C241.619 100.957 241.336 100.499 241.134 99.9949C240.932 99.4829 240.831 98.9631 240.831 98.4356ZM248.956 98.4356C248.956 97.9314 249.049 97.4388 249.235 96.9578C249.429 96.4691 249.708 96.0269 250.073 95.6313C250.437 95.2356 250.879 94.9214 251.399 94.6887C251.927 94.4482 252.52 94.328 253.18 94.328C253.971 94.328 254.661 94.4948 255.251 94.8284C255.84 95.1542 256.279 95.5886 256.566 96.1316L254.832 97.3651C254.731 97.0936 254.584 96.8841 254.39 96.7367C254.204 96.5893 253.998 96.4885 253.773 96.4342C253.556 96.3721 253.342 96.3411 253.133 96.3411C252.807 96.3411 252.524 96.407 252.284 96.5389C252.051 96.663 251.857 96.8298 251.702 97.0393C251.554 97.2487 251.442 97.4814 251.364 97.7374C251.294 97.9934 251.26 98.2494 251.26 98.5054C251.26 98.7925 251.302 99.0679 251.388 99.3316C251.473 99.5954 251.597 99.832 251.76 100.041C251.923 100.243 252.121 100.402 252.353 100.519C252.594 100.635 252.861 100.693 253.156 100.693C253.366 100.693 253.579 100.662 253.796 100.6C254.013 100.53 254.211 100.422 254.39 100.274C254.568 100.127 254.704 99.929 254.797 99.6807L256.647 100.786C256.484 101.19 256.213 101.535 255.833 101.822C255.452 102.109 255.022 102.33 254.541 102.485C254.06 102.632 253.583 102.706 253.11 102.706C252.497 102.706 251.934 102.586 251.422 102.345C250.918 102.097 250.48 101.771 250.108 101.368C249.743 100.957 249.46 100.499 249.258 99.9949C249.056 99.4829 248.956 98.9631 248.956 98.4356ZM257.705 102.636V94.3745H259.974V99.4014L263.023 94.3745H265.141V102.636H262.872V97.6094L259.858 102.636H257.705ZM266.852 102.636V94.3745H269.121V99.4014L272.17 94.3745H274.287V102.636H272.018V97.6094L269.005 102.636H266.852Z" fill="#FA334F"/>
<path d="M42.44 82.3636V53.9636H54.68C56.0667 53.9636 57.3467 54.2436 58.52 54.8036C59.6933 55.3636 60.7067 56.1236 61.56 57.0836C62.4133 58.017 63.0667 59.0703 63.52 60.2436C64 61.417 64.24 62.6036 64.24 63.8036C64.24 65.4836 63.84 67.0703 63.04 68.5636C62.2667 70.057 61.1733 71.2836 59.76 72.2436C58.3733 73.177 56.7467 73.6436 54.88 73.6436H50.24V82.3636H42.44ZM50.24 66.8436H54.36C54.68 66.8436 54.9867 66.7503 55.28 66.5636C55.5733 66.377 55.8133 66.057 56 65.6036C56.2133 65.1503 56.32 64.5503 56.32 63.8036C56.32 63.0036 56.2 62.3903 55.96 61.9636C55.7467 61.5103 55.4667 61.2036 55.12 61.0436C54.8 60.857 54.48 60.7636 54.16 60.7636H50.24V66.8436ZM77.9019 82.7636C76.0352 82.7636 74.3819 82.4703 72.9419 81.8836C71.5019 81.297 70.2885 80.497 69.3019 79.4836C68.3419 78.4436 67.6085 77.2703 67.1019 75.9636C66.6219 74.657 66.3819 73.2836 66.3819 71.8436C66.3819 70.4036 66.6219 69.0303 67.1019 67.7236C67.6085 66.3903 68.3419 65.217 69.3019 64.2036C70.2885 63.1903 71.5019 62.3903 72.9419 61.8036C74.3819 61.217 76.0352 60.9236 77.9019 60.9236C79.7952 60.9236 81.4485 61.217 82.8619 61.8036C84.3019 62.3903 85.5019 63.1903 86.4619 64.2036C87.4485 65.217 88.1819 66.3903 88.6619 67.7236C89.1685 69.0303 89.4219 70.4036 89.4219 71.8436C89.4219 73.2836 89.1685 74.657 88.6619 75.9636C88.1819 77.2703 87.4485 78.4436 86.4619 79.4836C85.5019 80.497 84.3019 81.297 82.8619 81.8836C81.4485 82.4703 79.7952 82.7636 77.9019 82.7636ZM74.1819 71.8436C74.1819 72.777 74.3419 73.5903 74.6619 74.2836C74.9819 74.9503 75.4219 75.4703 75.9819 75.8436C76.5419 76.1903 77.1819 76.3636 77.9019 76.3636C78.6219 76.3636 79.2619 76.1903 79.8219 75.8436C80.3819 75.4703 80.8219 74.9503 81.1419 74.2836C81.4619 73.5903 81.6219 72.777 81.6219 71.8436C81.6219 70.9103 81.4619 70.1103 81.1419 69.4436C80.8219 68.7503 80.3819 68.2303 79.8219 67.8836C79.2619 67.5103 78.6219 67.3236 77.9019 67.3236C77.1819 67.3236 76.5419 67.5103 75.9819 67.8836C75.4219 68.2303 74.9819 68.7503 74.6619 69.4436C74.3419 70.1103 74.1819 70.9103 74.1819 71.8436ZM103.212 82.7636C101.346 82.7636 99.6922 82.4703 98.2522 81.8836C96.8389 81.297 95.6389 80.497 94.6522 79.4836C93.6655 78.4436 92.9189 77.2703 92.4122 75.9636C91.9055 74.657 91.6522 73.2836 91.6522 71.8436C91.6522 69.9236 92.0922 68.137 92.9722 66.4836C93.8789 64.8036 95.1855 63.457 96.8922 62.4436C98.6255 61.4303 100.732 60.9236 103.212 60.9236C105.746 60.9236 107.879 61.457 109.612 62.5236C111.346 63.5903 112.639 64.9636 113.492 66.6436L106.092 68.8836C105.746 68.377 105.319 67.9903 104.812 67.7236C104.332 67.457 103.786 67.3236 103.172 67.3236C102.479 67.3236 101.852 67.5103 101.292 67.8836C100.732 68.2303 100.279 68.737 99.9322 69.4036C99.6122 70.0703 99.4522 70.8836 99.4522 71.8436C99.4522 72.777 99.6122 73.5903 99.9322 74.2836C100.279 74.9503 100.732 75.4703 101.292 75.8436C101.852 76.1903 102.479 76.3636 103.172 76.3636C103.599 76.3636 103.986 76.3103 104.332 76.2036C104.679 76.0703 104.999 75.8836 105.292 75.6436C105.612 75.4036 105.879 75.1236 106.092 74.8036L113.492 77.0436C112.932 78.1636 112.159 79.1503 111.172 80.0036C110.212 80.857 109.066 81.537 107.732 82.0436C106.426 82.5236 104.919 82.7636 103.212 82.7636ZM138.598 82.3636V67.4036L133.838 77.9236H129.678L124.918 67.4036V82.3636H117.118V53.9636H125.638L131.758 67.3236L137.918 53.9636H146.398V82.3636H138.598ZM151.519 82.3636V61.3236H159.119V72.2436L165.759 61.3236H172.679V82.3636H165.079V71.8036L158.479 82.3636H151.519ZM177.375 82.3636V61.3236H192.495V67.9236H184.975V82.3636H177.375ZM209.772 82.7636C208.252 82.7636 206.932 82.4703 205.812 81.8836C204.692 81.2703 203.826 80.3903 203.212 79.2436V90.8836H195.612V61.3236H202.212V64.4836C202.959 63.337 203.879 62.457 204.972 61.8436C206.092 61.2303 207.439 60.9236 209.012 60.9236C210.426 60.9236 211.719 61.1903 212.892 61.7236C214.066 62.257 215.092 63.017 215.972 64.0036C216.852 64.9903 217.532 66.137 218.012 67.4436C218.492 68.7503 218.732 70.1903 218.732 71.7636C218.732 73.8703 218.346 75.7503 217.572 77.4036C216.799 79.057 215.732 80.3636 214.372 81.3236C213.039 82.2836 211.506 82.7636 209.772 82.7636ZM207.132 76.3636C207.692 76.3636 208.199 76.2436 208.652 76.0036C209.132 75.7636 209.546 75.4303 209.892 75.0036C210.239 74.577 210.506 74.0836 210.692 73.5236C210.879 72.9636 210.972 72.3636 210.972 71.7236C210.972 71.057 210.866 70.457 210.652 69.9236C210.466 69.3903 210.186 68.937 209.812 68.5636C209.439 68.1636 208.999 67.857 208.492 67.6436C207.986 67.4303 207.426 67.3236 206.812 67.3236C206.466 67.3236 206.119 67.377 205.772 67.4836C205.452 67.5636 205.146 67.697 204.852 67.8836C204.559 68.0436 204.266 68.257 203.972 68.5236C203.706 68.7903 203.452 69.1103 203.212 69.4836V73.1236C203.452 73.737 203.772 74.297 204.172 74.8036C204.599 75.2836 205.066 75.6703 205.572 75.9636C206.079 76.2303 206.599 76.3636 207.132 76.3636ZM221.051 76.0036C221.051 74.5903 221.437 73.3503 222.211 72.2836C222.984 71.1903 224.051 70.337 225.411 69.7236C226.797 69.1103 228.371 68.8036 230.131 68.8036C230.957 68.8036 231.731 68.8703 232.451 69.0036C233.197 69.137 233.837 69.337 234.371 69.6036V68.9636C234.371 67.977 234.077 67.2436 233.491 66.7636C232.931 66.2836 232.011 66.0436 230.731 66.0436C229.557 66.0436 228.451 66.2436 227.411 66.6436C226.397 67.017 225.331 67.577 224.211 68.3236L222.011 63.6036C223.424 62.697 224.904 62.0303 226.451 61.6036C228.024 61.1503 229.704 60.9236 231.491 60.9236C234.824 60.9236 237.397 61.6836 239.211 63.2036C241.051 64.697 241.971 66.9236 241.971 69.8836V73.9636C241.971 74.6836 242.077 75.1903 242.291 75.4836C242.504 75.7503 242.877 75.9103 243.411 75.9636V82.3636C242.797 82.497 242.211 82.5903 241.651 82.6436C241.117 82.7236 240.637 82.7636 240.211 82.7636C238.851 82.7636 237.811 82.5236 237.091 82.0436C236.397 81.537 235.944 80.8036 235.731 79.8436L235.571 79.0836C234.637 80.2836 233.557 81.2036 232.331 81.8436C231.104 82.457 229.797 82.7636 228.411 82.7636C227.024 82.7636 225.771 82.4703 224.651 81.8836C223.531 81.297 222.651 80.497 222.011 79.4836C221.371 78.4436 221.051 77.2836 221.051 76.0036ZM233.371 76.5236C233.664 76.3103 233.904 76.0836 234.091 75.8436C234.277 75.577 234.371 75.3103 234.371 75.0436V73.4836C233.944 73.3236 233.451 73.1903 232.891 73.0836C232.357 72.977 231.877 72.9236 231.451 72.9236C230.544 72.9236 229.771 73.1503 229.131 73.6036C228.517 74.057 228.211 74.6303 228.211 75.3236C228.211 75.697 228.317 76.0436 228.531 76.3636C228.744 76.657 229.037 76.897 229.411 77.0836C229.784 77.2436 230.211 77.3236 230.691 77.3236C231.144 77.3236 231.611 77.257 232.091 77.1236C232.597 76.9636 233.024 76.7636 233.371 76.5236ZM246.936 82.3636V61.3236H254.536V68.4836H260.136V61.3236H267.736V82.3636H260.136V74.6836H254.536V82.3636H246.936ZM276.961 82.3636V67.9236H270.961V61.3236H290.561V67.9236H284.561V82.3636H276.961Z" fill="#0577EE"/>
<defs>
<linearGradient id="paint0_linear_56_634" x1="66.3415" y1="-0.162982" x2="66.0143" y2="133.254" gradientUnits="userSpaceOnUse">
<stop stop-color="#FD324E"/>
<stop offset="1" stop-color="#0368B9"/>
</linearGradient>
</defs>
</svg>
