<svg width="154" height="52" viewBox="0 0 154 52" fill="none" xmlns="http://www.w3.org/2000/svg">
<g clip-path="url(#clip0_56_2645)">
<path d="M148.296 51H5.70378C2.56668 51 0 48.1875 0 44.75V7.25C0 3.81248 2.56668 1 5.70378 1H148.296C151.433 1 154 3.81248 154 7.25V44.75C154 48.1875 151.433 51 148.296 51Z" fill="#100F0D"/>
<path d="M148.296 0H5.70378C2.56668 0 0 2.92498 0 6.5V45.5C0 49.075 2.56668 52 5.70378 52H148.296C151.433 52 154 49.075 154 45.5V6.5C154 2.92498 151.433 0 148.296 0ZM148.296 1.03947C150.938 1.03947 153.087 3.48922 153.087 6.5V45.5C153.087 48.5108 150.938 50.9605 148.296 50.9605H5.70378C3.06181 50.9605 0.913084 48.5108 0.913084 45.5V6.5C0.913084 3.48922 3.06181 1.03947 5.70378 1.03947H148.296Z" fill="#A2A2A1"/>
<path d="M121.985 37.2874H124.114V22.5978H121.985V37.2874ZM141.157 27.8897L138.717 34.258H138.644L136.112 27.8897H133.819L137.618 36.7904L135.451 41.7417H137.671L143.524 27.8902L141.157 27.8897ZM129.085 35.6189C128.389 35.6189 127.416 35.2594 127.416 34.3713C127.416 33.2376 128.628 32.803 129.673 32.803C130.608 32.803 131.05 33.0105 131.618 33.2941C131.452 34.6549 130.315 35.6189 129.085 35.6189ZM129.343 27.5684C127.802 27.5684 126.206 28.2679 125.546 29.8175L127.435 30.6298C127.838 29.8175 128.59 29.5531 129.38 29.5531C130.48 29.5531 131.599 30.2328 131.618 31.4427V31.5937C131.232 31.3669 130.406 31.0269 129.398 31.0269C127.36 31.0269 125.288 32.1793 125.288 34.3337C125.288 36.2991 126.958 37.5654 128.829 37.5654C130.259 37.5654 131.05 36.9039 131.543 36.1288H131.618V37.2634H133.673V31.6312C133.673 29.0233 131.782 27.5684 129.343 27.5684ZM116.188 29.6779H113.161V24.643H116.188C117.779 24.643 118.683 25.9998 118.683 27.1604C118.683 28.2987 117.779 29.6779 116.188 29.6779ZM116.133 22.5981H111.033V37.2878H113.161V31.7227H116.133C118.492 31.7227 120.811 29.9639 120.811 27.1609C120.811 24.3584 118.492 22.5981 116.133 22.5981ZM88.3218 35.6213C86.8512 35.6213 85.6205 34.3527 85.6205 32.6118C85.6205 30.8507 86.8512 29.5642 88.3218 29.5642C89.7736 29.5642 90.9129 30.8508 90.9129 32.6118C90.9129 34.3527 89.7736 35.6213 88.3218 35.6213ZM90.7658 28.712H90.6922C90.2146 28.1253 89.2953 27.5953 88.1382 27.5953C85.7119 27.5953 83.4884 29.7915 83.4884 32.6118C83.4884 35.413 85.7119 37.5899 88.1382 37.5899C89.2953 37.5899 90.2146 37.0597 90.6922 36.4544H90.7658V37.1731C90.7658 39.0857 89.7736 40.1073 88.1747 40.1073C86.8704 40.1073 86.0617 39.1421 85.7306 38.3283L83.8748 39.1232C84.4073 40.4477 85.822 42.0763 88.1748 42.0763C90.6745 42.0763 92.7879 40.5616 92.7879 36.8701V27.898H90.7659L90.7658 28.712ZM94.2584 37.287H96.3892V22.5973H94.2584V37.287ZM99.532 32.4411C99.4772 30.5102 100.985 29.5261 102.068 29.5261C102.914 29.5261 103.63 29.9617 103.87 30.5859L99.532 32.4411ZM106.148 30.775C105.744 29.6588 104.512 27.5953 101.995 27.5953C99.495 27.5953 97.4185 29.6207 97.4185 32.5926C97.4185 35.3942 99.4772 37.59 102.233 37.59C104.457 37.59 105.744 36.1896 106.277 35.3754L104.623 34.2394C104.071 35.0725 103.318 35.6214 102.233 35.6214C101.15 35.6214 100.377 35.1102 99.8819 34.1069L106.368 31.3434L106.148 30.775ZM54.4644 29.1287V31.2487H59.3894C59.2424 32.4412 58.8565 33.3118 58.2683 33.9177C57.5514 34.6557 56.4303 35.4699 54.4643 35.4699C51.432 35.4699 49.0615 32.9524 49.0615 29.8291C49.0615 26.7057 51.432 24.1879 54.4643 24.1879C56.1 24.1879 57.2943 24.8506 58.1764 25.7024L59.6287 24.2067C58.397 22.9954 56.7617 22.0679 54.4643 22.0679C50.3105 22.0679 46.8188 25.5509 46.8188 29.8291C46.8188 34.1068 50.3105 37.59 54.4643 37.59C56.7061 37.59 58.3971 36.8327 59.72 35.4131C61.08 34.0122 61.5028 32.0437 61.5028 30.4534C61.5028 29.9618 61.4658 29.5074 61.3923 29.1287H54.4644ZM67.1027 35.6213C65.6322 35.6213 64.3641 34.372 64.3641 32.5926C64.3641 30.7943 65.6322 29.5643 67.1027 29.5643C68.5726 29.5643 69.8407 30.7943 69.8407 32.5926C69.8407 34.372 68.5726 35.6213 67.1027 35.6213ZM67.1027 27.5953C64.4188 27.5953 62.2323 29.6964 62.2323 32.5926C62.2323 35.4699 64.4188 37.59 67.1027 37.59C69.7856 37.59 71.9725 35.4699 71.9725 32.5926C71.9725 29.6964 69.7856 27.5953 67.1027 27.5953ZM77.7261 35.6213C76.2566 35.6213 74.9881 34.372 74.9881 32.5926C74.9881 30.7943 76.2567 29.5643 77.7261 29.5643C79.1967 29.5643 80.4643 30.7943 80.4643 32.5926C80.4643 34.372 79.1967 35.6213 77.7261 35.6213ZM77.7261 27.5953C75.0433 27.5953 72.8567 29.6964 72.8567 32.5926C72.8567 35.4699 75.0433 37.59 77.7261 37.59C80.41 37.59 82.5965 35.4699 82.5965 32.5926C82.5965 29.6964 80.41 27.5953 77.7261 27.5953Z" fill="white"/>
<path d="M23.632 24.8605L11.4883 38.1375C11.4887 38.1402 11.4897 38.1425 11.4901 38.1453C11.8625 39.5871 13.141 40.6486 14.6582 40.6486C15.2647 40.6486 15.8342 40.4797 16.3225 40.1832L16.3613 40.1598L30.0314 32.0347L23.632 24.8605Z" fill="#EB3131"/>
<path d="M35.919 22.6002L35.9074 22.592L30.0056 19.0679L23.3564 25.1623L30.0287 32.034L35.8993 28.545C36.9285 27.9726 37.6273 26.855 37.6273 25.5662C37.6273 24.2866 36.938 23.1744 35.919 22.6002Z" fill="#F6B60B"/>
<path d="M11.4869 12.938C11.4139 13.2153 11.3755 13.5057 11.3755 13.8074V37.269C11.3755 37.5701 11.4134 37.8615 11.4873 38.1378L24.0503 25.2001L11.4869 12.938Z" fill="#5778C5"/>
<path d="M23.7218 25.5382L30.0078 19.0653L16.3531 10.9107C15.8568 10.6045 15.2775 10.4277 14.6577 10.4277C13.1404 10.4277 11.8603 11.4912 11.4878 12.9346C11.4873 12.9361 11.4873 12.937 11.4873 12.9383L23.7218 25.5382Z" fill="#3BAD49"/>
<path d="M47.3369 20.9375V18.1406H47.8525C48.0296 17.9792 48.1963 17.7513 48.3525 17.457C48.5114 17.1602 48.6455 16.7643 48.7549 16.2695C48.8669 15.7721 48.9411 15.1406 48.9775 14.375L49.1494 11H53.8994V18.1406H54.8213V20.9219H53.8994V19H48.2588V20.9375H47.3369ZM49.0088 18.1406H52.9775V11.8594H50.0244L49.8994 14.375C49.8682 14.9583 49.8135 15.487 49.7354 15.9609C49.6572 16.4323 49.557 16.8503 49.4346 17.2148C49.3122 17.5768 49.1702 17.8854 49.0088 18.1406ZM63.0352 15C63.0352 15.8437 62.8828 16.5729 62.5781 17.1875C62.2734 17.8021 61.8555 18.276 61.3242 18.6094C60.793 18.9427 60.1862 19.1094 59.5039 19.1094C58.8216 19.1094 58.2148 18.9427 57.6836 18.6094C57.1523 18.276 56.7344 17.8021 56.4297 17.1875C56.125 16.5729 55.9727 15.8437 55.9727 15C55.9727 14.1562 56.125 13.4271 56.4297 12.8125C56.7344 12.1979 57.1523 11.724 57.6836 11.3906C58.2148 11.0573 58.8216 10.8906 59.5039 10.8906C60.1862 10.8906 60.793 11.0573 61.3242 11.3906C61.8555 11.724 62.2734 12.1979 62.5781 12.8125C62.8828 13.4271 63.0352 14.1562 63.0352 15ZM62.0977 15C62.0977 14.3073 61.9818 13.7227 61.75 13.2461C61.5208 12.7695 61.2096 12.4089 60.8164 12.1641C60.4258 11.9193 59.9883 11.7969 59.5039 11.7969C59.0195 11.7969 58.5807 11.9193 58.1875 12.1641C57.7969 12.4089 57.4857 12.7695 57.2539 13.2461C57.0247 13.7227 56.9102 14.3073 56.9102 15C56.9102 15.6927 57.0247 16.2773 57.2539 16.7539C57.4857 17.2305 57.7969 17.5911 58.1875 17.8359C58.5807 18.0807 59.0195 18.2031 59.5039 18.2031C59.9883 18.2031 60.4258 18.0807 60.8164 17.8359C61.2096 17.5911 61.5208 17.2305 61.75 16.7539C61.9818 16.2773 62.0977 15.6927 62.0977 15ZM71.1016 13.5H70.1328C70.0755 13.2214 69.9753 12.9766 69.832 12.7656C69.6914 12.5547 69.5195 12.3776 69.3164 12.2344C69.1159 12.0885 68.8932 11.9792 68.6484 11.9062C68.4036 11.8333 68.1484 11.7969 67.8828 11.7969C67.3984 11.7969 66.9596 11.9193 66.5664 12.1641C66.1758 12.4089 65.8646 12.7695 65.6328 13.2461C65.4036 13.7227 65.2891 14.3073 65.2891 15C65.2891 15.6927 65.4036 16.2773 65.6328 16.7539C65.8646 17.2305 66.1758 17.5911 66.5664 17.8359C66.9596 18.0807 67.3984 18.2031 67.8828 18.2031C68.1484 18.2031 68.4036 18.1667 68.6484 18.0937C68.8932 18.0208 69.1159 17.9128 69.3164 17.7695C69.5195 17.6237 69.6914 17.4453 69.832 17.2344C69.9753 17.0208 70.0755 16.776 70.1328 16.5H71.1016C71.0286 16.9089 70.8958 17.2747 70.7031 17.5977C70.5104 17.9206 70.2708 18.1953 69.9844 18.4219C69.6979 18.6458 69.3763 18.8164 69.0195 18.9336C68.6654 19.0508 68.2865 19.1094 67.8828 19.1094C67.2005 19.1094 66.5938 18.9427 66.0625 18.6094C65.5313 18.276 65.1133 17.8021 64.8086 17.1875C64.5039 16.5729 64.3516 15.8437 64.3516 15C64.3516 14.1562 64.5039 13.4271 64.8086 12.8125C65.1133 12.1979 65.5313 11.724 66.0625 11.3906C66.5938 11.0573 67.2005 10.8906 67.8828 10.8906C68.2865 10.8906 68.6654 10.9492 69.0195 11.0664C69.3763 11.1836 69.6979 11.3555 69.9844 11.582C70.2708 11.806 70.5104 12.0794 70.7031 12.4023C70.8958 12.7227 71.0286 13.0885 71.1016 13.5ZM72.2295 11.8594V11H78.2295V11.8594H75.7139V19H74.7451V11.8594H72.2295ZM80.1465 19.1094V18.2031H80.6465C80.8392 18.2031 81.0007 18.1654 81.1309 18.0898C81.2637 18.0143 81.373 17.9167 81.459 17.7969C81.5475 17.6771 81.6204 17.5521 81.6777 17.4219L81.8027 17.125L79.0371 11H80.084L82.2871 15.9687L84.3027 11H85.334L82.5684 17.7031C82.459 17.9531 82.334 18.1849 82.1934 18.3984C82.0553 18.612 81.8665 18.7839 81.627 18.9141C81.39 19.0443 81.0684 19.1094 80.6621 19.1094H80.1465ZM92.5732 11V19H91.6045V11.8594H87.5732V19H86.6045V11H92.5732ZM94.5273 19V11H95.4961V14.5625H99.7617V11H100.73V19H99.7617V15.4219H95.4961V19H94.5273ZM109.42 15C109.42 15.8437 109.268 16.5729 108.963 17.1875C108.658 17.8021 108.24 18.276 107.709 18.6094C107.178 18.9427 106.571 19.1094 105.889 19.1094C105.206 19.1094 104.6 18.9427 104.068 18.6094C103.537 18.276 103.119 17.8021 102.814 17.1875C102.51 16.5729 102.357 15.8437 102.357 15C102.357 14.1562 102.51 13.4271 102.814 12.8125C103.119 12.1979 103.537 11.724 104.068 11.3906C104.6 11.0573 105.206 10.8906 105.889 10.8906C106.571 10.8906 107.178 11.0573 107.709 11.3906C108.24 11.724 108.658 12.1979 108.963 12.8125C109.268 13.4271 109.42 14.1562 109.42 15ZM108.482 15C108.482 14.3073 108.367 13.7227 108.135 13.2461C107.906 12.7695 107.594 12.4089 107.201 12.1641C106.811 11.9193 106.373 11.7969 105.889 11.7969C105.404 11.7969 104.965 11.9193 104.572 12.1641C104.182 12.4089 103.87 12.7695 103.639 13.2461C103.41 13.7227 103.295 14.3073 103.295 15C103.295 15.6927 103.41 16.2773 103.639 16.7539C103.87 17.2305 104.182 17.5911 104.572 17.8359C104.965 18.0807 105.404 18.2031 105.889 18.2031C106.373 18.2031 106.811 18.0807 107.201 17.8359C107.594 17.5911 107.906 17.2305 108.135 16.7539C108.367 16.2773 108.482 15.6927 108.482 15ZM114.143 19V11H116.939C117.497 11 117.956 11.0964 118.318 11.2891C118.68 11.4792 118.95 11.7357 119.127 12.0586C119.304 12.3789 119.393 12.7344 119.393 13.125C119.393 13.4687 119.331 13.7526 119.209 13.9766C119.089 14.2005 118.93 14.3776 118.732 14.5078C118.537 14.638 118.325 14.7344 118.096 14.7969V14.875C118.34 14.8906 118.587 14.9766 118.834 15.1328C119.081 15.2891 119.288 15.513 119.455 15.8047C119.622 16.0964 119.705 16.4531 119.705 16.875C119.705 17.276 119.614 17.6367 119.432 17.957C119.249 18.2773 118.962 18.5312 118.568 18.7187C118.175 18.9062 117.663 19 117.033 19H114.143ZM115.111 18.1406H117.033C117.666 18.1406 118.115 18.0182 118.381 17.7734C118.649 17.526 118.783 17.2266 118.783 16.875C118.783 16.6042 118.714 16.3542 118.576 16.125C118.438 15.8932 118.242 15.7083 117.986 15.5703C117.731 15.4297 117.429 15.3594 117.08 15.3594H115.111V18.1406ZM115.111 14.5156H116.908C117.2 14.5156 117.463 14.4583 117.697 14.3437C117.934 14.2292 118.122 14.0677 118.26 13.8594C118.4 13.651 118.471 13.4062 118.471 13.125C118.471 12.7734 118.348 12.4753 118.104 12.2305C117.859 11.9831 117.471 11.8594 116.939 11.8594H115.111V14.5156Z" fill="white"/>
</g>
<defs>
<clipPath id="clip0_56_2645">
<rect width="154" height="52" fill="white"/>
</clipPath>
</defs>
</svg>
