<svg width="124" height="124" viewBox="0 0 124 124" fill="none" xmlns="http://www.w3.org/2000/svg">
<mask id="mask0_56_689" style="mask-type:luminance" maskUnits="userSpaceOnUse" x="0" y="0" width="125" height="124">
<path d="M4.27586 34.2069H0V38.4828H4.27586V34.2069Z" fill="white"/>
<path d="M4.27586 47.0345H0V51.3103H4.27586V47.0345Z" fill="white"/>
<path d="M4.27586 59.8621H0V64.1379H4.27586V59.8621Z" fill="white"/>
<path d="M4.27586 64.1379H0V68.4138H4.27586V64.1379Z" fill="white"/>
<path d="M4.27586 68.4138H0V72.6896H4.27586V68.4138Z" fill="white"/>
<path d="M4.27586 72.6897H0V76.9655H4.27586V72.6897Z" fill="white"/>
<path d="M4.27586 76.9655H0V81.2414H4.27586V76.9655Z" fill="white"/>
<path d="M4.27586 81.2414H0V85.5172H4.27586V81.2414Z" fill="white"/>
<path d="M4.27586 85.5172H0V89.7931H4.27586V85.5172Z" fill="white"/>
<path d="M8.55162 34.2069H4.27576V38.4828H8.55162V34.2069Z" fill="white"/>
<path d="M8.55162 38.4828H4.27576V42.7586H8.55162V38.4828Z" fill="white"/>
<path d="M8.55162 47.0345H4.27576V51.3103H8.55162V47.0345Z" fill="white"/>
<path d="M8.55162 51.3104H4.27576V55.5862H8.55162V51.3104Z" fill="white"/>
<path d="M8.55162 64.1379H4.27576V68.4138H8.55162V64.1379Z" fill="white"/>
<path d="M8.55162 72.6897H4.27576V76.9655H8.55162V72.6897Z" fill="white"/>
<path d="M8.55162 76.9655H4.27576V81.2414H8.55162V76.9655Z" fill="white"/>
<path d="M8.55162 85.5172H4.27576V89.7931H8.55162V85.5172Z" fill="white"/>
<path d="M12.8275 42.7586H8.55164V47.0345H12.8275V42.7586Z" fill="white"/>
<path d="M12.8275 47.0345H8.55164V51.3103H12.8275V47.0345Z" fill="white"/>
<path d="M12.8275 55.5862H8.55164V59.8621H12.8275V55.5862Z" fill="white"/>
<path d="M12.8275 59.8621H8.55164V64.1379H12.8275V59.8621Z" fill="white"/>
<path d="M12.8275 68.4138H8.55164V72.6896H12.8275V68.4138Z" fill="white"/>
<path d="M12.8275 81.2414H8.55164V85.5172H12.8275V81.2414Z" fill="white"/>
<path d="M17.1035 38.4828H12.8276V42.7586H17.1035V38.4828Z" fill="white"/>
<path d="M17.1035 72.6897H12.8276V76.9655H17.1035V72.6897Z" fill="white"/>
<path d="M17.1035 81.2414H12.8276V85.5172H17.1035V81.2414Z" fill="white"/>
<path d="M21.3793 38.4828H17.1034V42.7586H21.3793V38.4828Z" fill="white"/>
<path d="M21.3793 47.0345H17.1034V51.3103H21.3793V47.0345Z" fill="white"/>
<path d="M21.3793 55.5862H17.1034V59.8621H21.3793V55.5862Z" fill="white"/>
<path d="M21.3793 72.6897H17.1034V76.9655H21.3793V72.6897Z" fill="white"/>
<path d="M21.3793 76.9655H17.1034V81.2414H21.3793V76.9655Z" fill="white"/>
<path d="M21.3793 81.2414H17.1034V85.5172H21.3793V81.2414Z" fill="white"/>
<path d="M21.3793 85.5172H17.1034V89.7931H21.3793V85.5172Z" fill="white"/>
<path d="M25.6551 38.4828H21.3793V42.7586H25.6551V38.4828Z" fill="white"/>
<path d="M25.6551 64.1379H21.3793V68.4138H25.6551V64.1379Z" fill="white"/>
<path d="M25.6551 72.6897H21.3793V76.9655H25.6551V72.6897Z" fill="white"/>
<path d="M25.6551 85.5172H21.3793V89.7931H25.6551V85.5172Z" fill="white"/>
<path d="M29.9311 34.2069H25.6553V38.4828H29.9311V34.2069Z" fill="white"/>
<path d="M29.9311 42.7586H25.6553V47.0345H29.9311V42.7586Z" fill="white"/>
<path d="M29.9311 51.3104H25.6553V55.5862H29.9311V51.3104Z" fill="white"/>
<path d="M29.9311 59.8621H25.6553V64.1379H29.9311V59.8621Z" fill="white"/>
<path d="M29.9311 68.4138H25.6553V72.6896H29.9311V68.4138Z" fill="white"/>
<path d="M29.9311 76.9655H25.6553V81.2414H29.9311V76.9655Z" fill="white"/>
<path d="M29.9311 85.5172H25.6553V89.7931H29.9311V85.5172Z" fill="white"/>
<path d="M34.2069 38.4828H29.931V42.7586H34.2069V38.4828Z" fill="white"/>
<path d="M34.2069 42.7586H29.931V47.0345H34.2069V42.7586Z" fill="white"/>
<path d="M34.2069 47.0345H29.931V51.3103H34.2069V47.0345Z" fill="white"/>
<path d="M34.2069 51.3104H29.931V55.5862H34.2069V51.3104Z" fill="white"/>
<path d="M34.2069 55.5862H29.931V59.8621H34.2069V55.5862Z" fill="white"/>
<path d="M34.2069 59.8621H29.931V64.1379H34.2069V59.8621Z" fill="white"/>
<path d="M34.2069 72.6897H29.931V76.9655H34.2069V72.6897Z" fill="white"/>
<path d="M34.2069 76.9655H29.931V81.2414H34.2069V76.9655Z" fill="white"/>
<path d="M34.2069 81.2414H29.931V85.5172H34.2069V81.2414Z" fill="white"/>
<path d="M34.2069 85.5172H29.931V89.7931H34.2069V85.5172Z" fill="white"/>
<path d="M38.4828 4.27586H34.2069V8.55173H38.4828V4.27586Z" fill="white"/>
<path d="M38.4828 25.6552H34.2069V29.931H38.4828V25.6552Z" fill="white"/>
<path d="M38.4828 29.931H34.2069V34.2069H38.4828V29.931Z" fill="white"/>
<path d="M38.4828 34.2069H34.2069V38.4828H38.4828V34.2069Z" fill="white"/>
<path d="M38.4828 38.4828H34.2069V42.7586H38.4828V38.4828Z" fill="white"/>
<path d="M38.4828 47.0345H34.2069V51.3103H38.4828V47.0345Z" fill="white"/>
<path d="M38.4828 68.4138H34.2069V72.6896H38.4828V68.4138Z" fill="white"/>
<path d="M38.4828 81.2414H34.2069V85.5172H38.4828V81.2414Z" fill="white"/>
<path d="M38.4828 89.7931H34.2069V94.069H38.4828V89.7931Z" fill="white"/>
<path d="M38.4828 115.448H34.2069V119.724H38.4828V115.448Z" fill="white"/>
<path d="M38.4828 119.724H34.2069V124H38.4828V119.724Z" fill="white"/>
<path d="M42.7585 4.27586H38.4827V8.55173H42.7585V4.27586Z" fill="white"/>
<path d="M42.7585 21.3793H38.4827V25.6552H42.7585V21.3793Z" fill="white"/>
<path d="M42.7585 29.931H38.4827V34.2069H42.7585V29.931Z" fill="white"/>
<path d="M42.7585 38.4828H38.4827V42.7586H42.7585V38.4828Z" fill="white"/>
<path d="M42.7585 47.0345H38.4827V51.3103H42.7585V47.0345Z" fill="white"/>
<path d="M42.7585 55.5862H38.4827V59.8621H42.7585V55.5862Z" fill="white"/>
<path d="M42.7585 59.8621H38.4827V64.1379H42.7585V59.8621Z" fill="white"/>
<path d="M42.7585 64.1379H38.4827V68.4138H42.7585V64.1379Z" fill="white"/>
<path d="M42.7585 72.6897H38.4827V76.9655H42.7585V72.6897Z" fill="white"/>
<path d="M42.7585 76.9655H38.4827V81.2414H42.7585V76.9655Z" fill="white"/>
<path d="M42.7585 81.2414H38.4827V85.5172H42.7585V81.2414Z" fill="white"/>
<path d="M42.7585 102.621H38.4827V106.897H42.7585V102.621Z" fill="white"/>
<path d="M42.7585 106.897H38.4827V111.172H42.7585V106.897Z" fill="white"/>
<path d="M42.7585 111.172H38.4827V115.448H42.7585V111.172Z" fill="white"/>
<path d="M42.7585 115.448H38.4827V119.724H42.7585V115.448Z" fill="white"/>
<path d="M47.0345 8.55173H42.7587V12.8276H47.0345V8.55173Z" fill="white"/>
<path d="M47.0345 12.8276H42.7587V17.1034H47.0345V12.8276Z" fill="white"/>
<path d="M47.0345 21.3793H42.7587V25.6552H47.0345V21.3793Z" fill="white"/>
<path d="M47.0345 25.6552H42.7587V29.931H47.0345V25.6552Z" fill="white"/>
<path d="M47.0345 29.931H42.7587V34.2069H47.0345V29.931Z" fill="white"/>
<path d="M47.0345 38.4828H42.7587V42.7586H47.0345V38.4828Z" fill="white"/>
<path d="M47.0345 51.3104H42.7587V55.5862H47.0345V51.3104Z" fill="white"/>
<path d="M47.0345 55.5862H42.7587V59.8621H47.0345V55.5862Z" fill="white"/>
<path d="M47.0345 59.8621H42.7587V64.1379H47.0345V59.8621Z" fill="white"/>
<path d="M47.0345 64.1379H42.7587V68.4138H47.0345V64.1379Z" fill="white"/>
<path d="M47.0345 68.4138H42.7587V72.6896H47.0345V68.4138Z" fill="white"/>
<path d="M47.0345 89.7931H42.7587V94.069H47.0345V89.7931Z" fill="white"/>
<path d="M47.0345 94.069H42.7587V98.3448H47.0345V94.069Z" fill="white"/>
<path d="M47.0345 102.621H42.7587V106.897H47.0345V102.621Z" fill="white"/>
<path d="M51.3103 4.27586H47.0344V8.55173H51.3103V4.27586Z" fill="white"/>
<path d="M51.3103 12.8276H47.0344V17.1034H51.3103V12.8276Z" fill="white"/>
<path d="M51.3103 17.1035H47.0344V21.3793H51.3103V17.1035Z" fill="white"/>
<path d="M51.3103 34.2069H47.0344V38.4828H51.3103V34.2069Z" fill="white"/>
<path d="M51.3103 42.7586H47.0344V47.0345H51.3103V42.7586Z" fill="white"/>
<path d="M51.3103 55.5862H47.0344V59.8621H51.3103V55.5862Z" fill="white"/>
<path d="M51.3103 59.8621H47.0344V64.1379H51.3103V59.8621Z" fill="white"/>
<path d="M51.3103 81.2414H47.0344V85.5172H51.3103V81.2414Z" fill="white"/>
<path d="M51.3103 85.5172H47.0344V89.7931H51.3103V85.5172Z" fill="white"/>
<path d="M51.3103 94.069H47.0344V98.3448H51.3103V94.069Z" fill="white"/>
<path d="M51.3103 102.621H47.0344V106.897H51.3103V102.621Z" fill="white"/>
<path d="M55.5862 0H51.3103V4.27586H55.5862V0Z" fill="white"/>
<path d="M55.5862 4.27586H51.3103V8.55173H55.5862V4.27586Z" fill="white"/>
<path d="M55.5862 21.3793H51.3103V25.6552H55.5862V21.3793Z" fill="white"/>
<path d="M55.5862 25.6552H51.3103V29.931H55.5862V25.6552Z" fill="white"/>
<path d="M55.5862 29.931H51.3103V34.2069H55.5862V29.931Z" fill="white"/>
<path d="M55.5862 38.4828H51.3103V42.7586H55.5862V38.4828Z" fill="white"/>
<path d="M55.5862 47.0345H51.3103V51.3103H55.5862V47.0345Z" fill="white"/>
<path d="M55.5862 59.8621H51.3103V64.1379H55.5862V59.8621Z" fill="white"/>
<path d="M55.5862 85.5172H51.3103V89.7931H55.5862V85.5172Z" fill="white"/>
<path d="M55.5862 89.7931H51.3103V94.069H55.5862V89.7931Z" fill="white"/>
<path d="M55.5862 94.069H51.3103V98.3448H55.5862V94.069Z" fill="white"/>
<path d="M55.5862 106.897H51.3103V111.172H55.5862V106.897Z" fill="white"/>
<path d="M55.5862 115.448H51.3103V119.724H55.5862V115.448Z" fill="white"/>
<path d="M59.8622 4.27586H55.5863V8.55173H59.8622V4.27586Z" fill="white"/>
<path d="M59.8622 12.8276H55.5863V17.1034H59.8622V12.8276Z" fill="white"/>
<path d="M59.8622 38.4828H55.5863V42.7586H59.8622V38.4828Z" fill="white"/>
<path d="M59.8622 42.7586H55.5863V47.0345H59.8622V42.7586Z" fill="white"/>
<path d="M59.8622 47.0345H55.5863V51.3103H59.8622V47.0345Z" fill="white"/>
<path d="M59.8622 68.4138H55.5863V72.6896H59.8622V68.4138Z" fill="white"/>
<path d="M59.8622 76.9655H55.5863V81.2414H59.8622V76.9655Z" fill="white"/>
<path d="M59.8622 81.2414H55.5863V85.5172H59.8622V81.2414Z" fill="white"/>
<path d="M59.8622 85.5172H55.5863V89.7931H59.8622V85.5172Z" fill="white"/>
<path d="M59.8622 94.069H55.5863V98.3448H59.8622V94.069Z" fill="white"/>
<path d="M59.8622 102.621H55.5863V106.897H59.8622V102.621Z" fill="white"/>
<path d="M59.8622 106.897H55.5863V111.172H59.8622V106.897Z" fill="white"/>
<path d="M59.8622 115.448H55.5863V119.724H59.8622V115.448Z" fill="white"/>
<path d="M59.8622 119.724H55.5863V124H59.8622V119.724Z" fill="white"/>
<path d="M64.1379 0H59.8621V4.27586H64.1379V0Z" fill="white"/>
<path d="M64.1379 4.27586H59.8621V8.55173H64.1379V4.27586Z" fill="white"/>
<path d="M64.1379 8.55173H59.8621V12.8276H64.1379V8.55173Z" fill="white"/>
<path d="M64.1379 17.1035H59.8621V21.3793H64.1379V17.1035Z" fill="white"/>
<path d="M64.1379 25.6552H59.8621V29.931H64.1379V25.6552Z" fill="white"/>
<path d="M64.1379 34.2069H59.8621V38.4828H64.1379V34.2069Z" fill="white"/>
<path d="M64.1379 42.7586H59.8621V47.0345H64.1379V42.7586Z" fill="white"/>
<path d="M64.1379 47.0345H59.8621V51.3103H64.1379V47.0345Z" fill="white"/>
<path d="M64.1379 51.3104H59.8621V55.5862H64.1379V51.3104Z" fill="white"/>
<path d="M64.1379 64.1379H59.8621V68.4138H64.1379V64.1379Z" fill="white"/>
<path d="M64.1379 68.4138H59.8621V72.6896H64.1379V68.4138Z" fill="white"/>
<path d="M64.1379 76.9655H59.8621V81.2414H64.1379V76.9655Z" fill="white"/>
<path d="M64.1379 94.069H59.8621V98.3448H64.1379V94.069Z" fill="white"/>
<path d="M64.1379 98.3448H59.8621V102.621H64.1379V98.3448Z" fill="white"/>
<path d="M68.4138 0H64.1379V4.27586H68.4138V0Z" fill="white"/>
<path d="M68.4138 4.27586H64.1379V8.55173H68.4138V4.27586Z" fill="white"/>
<path d="M68.4138 8.55173H64.1379V12.8276H68.4138V8.55173Z" fill="white"/>
<path d="M68.4138 17.1035H64.1379V21.3793H68.4138V17.1035Z" fill="white"/>
<path d="M68.4138 21.3793H64.1379V25.6552H68.4138V21.3793Z" fill="white"/>
<path d="M68.4138 29.931H64.1379V34.2069H68.4138V29.931Z" fill="white"/>
<path d="M68.4138 34.2069H64.1379V38.4828H68.4138V34.2069Z" fill="white"/>
<path d="M68.4138 42.7586H64.1379V47.0345H68.4138V42.7586Z" fill="white"/>
<path d="M68.4138 47.0345H64.1379V51.3103H68.4138V47.0345Z" fill="white"/>
<path d="M68.4138 55.5862H64.1379V59.8621H68.4138V55.5862Z" fill="white"/>
<path d="M68.4138 59.8621H64.1379V64.1379H68.4138V59.8621Z" fill="white"/>
<path d="M68.4138 68.4138H64.1379V72.6896H68.4138V68.4138Z" fill="white"/>
<path d="M68.4138 81.2414H64.1379V85.5172H68.4138V81.2414Z" fill="white"/>
<path d="M68.4138 85.5172H64.1379V89.7931H68.4138V85.5172Z" fill="white"/>
<path d="M68.4138 102.621H64.1379V106.897H68.4138V102.621Z" fill="white"/>
<path d="M68.4138 106.897H64.1379V111.172H68.4138V106.897Z" fill="white"/>
<path d="M68.4138 111.172H64.1379V115.448H68.4138V111.172Z" fill="white"/>
<path d="M72.6896 17.1035H68.4137V21.3793H72.6896V17.1035Z" fill="white"/>
<path d="M72.6896 25.6552H68.4137V29.931H72.6896V25.6552Z" fill="white"/>
<path d="M72.6896 29.931H68.4137V34.2069H72.6896V29.931Z" fill="white"/>
<path d="M72.6896 55.5862H68.4137V59.8621H72.6896V55.5862Z" fill="white"/>
<path d="M72.6896 64.1379H68.4137V68.4138H72.6896V64.1379Z" fill="white"/>
<path d="M72.6896 76.9655H68.4137V81.2414H72.6896V76.9655Z" fill="white"/>
<path d="M72.6896 98.3448H68.4137V102.621H72.6896V98.3448Z" fill="white"/>
<path d="M72.6896 106.897H68.4137V111.172H72.6896V106.897Z" fill="white"/>
<path d="M72.6896 111.172H68.4137V115.448H72.6896V111.172Z" fill="white"/>
<path d="M72.6896 119.724H68.4137V124H72.6896V119.724Z" fill="white"/>
<path d="M76.9656 0H72.6897V4.27586H76.9656V0Z" fill="white"/>
<path d="M76.9656 4.27586H72.6897V8.55173H76.9656V4.27586Z" fill="white"/>
<path d="M76.9656 8.55173H72.6897V12.8276H76.9656V8.55173Z" fill="white"/>
<path d="M76.9656 12.8276H72.6897V17.1034H76.9656V12.8276Z" fill="white"/>
<path d="M76.9656 21.3793H72.6897V25.6552H76.9656V21.3793Z" fill="white"/>
<path d="M76.9656 38.4828H72.6897V42.7586H76.9656V38.4828Z" fill="white"/>
<path d="M76.9656 51.3104H72.6897V55.5862H76.9656V51.3104Z" fill="white"/>
<path d="M76.9656 59.8621H72.6897V64.1379H76.9656V59.8621Z" fill="white"/>
<path d="M76.9656 68.4138H72.6897V72.6896H76.9656V68.4138Z" fill="white"/>
<path d="M76.9656 72.6897H72.6897V76.9655H76.9656V72.6897Z" fill="white"/>
<path d="M76.9656 81.2414H72.6897V85.5172H76.9656V81.2414Z" fill="white"/>
<path d="M76.9656 85.5172H72.6897V89.7931H76.9656V85.5172Z" fill="white"/>
<path d="M76.9656 94.069H72.6897V98.3448H76.9656V94.069Z" fill="white"/>
<path d="M76.9656 98.3448H72.6897V102.621H76.9656V98.3448Z" fill="white"/>
<path d="M76.9656 102.621H72.6897V106.897H76.9656V102.621Z" fill="white"/>
<path d="M76.9656 106.897H72.6897V111.172H76.9656V106.897Z" fill="white"/>
<path d="M76.9656 111.172H72.6897V115.448H76.9656V111.172Z" fill="white"/>
<path d="M76.9656 119.724H72.6897V124H76.9656V119.724Z" fill="white"/>
<path d="M81.2414 0H76.9656V4.27586H81.2414V0Z" fill="white"/>
<path d="M81.2414 4.27586H76.9656V8.55173H81.2414V4.27586Z" fill="white"/>
<path d="M81.2414 12.8276H76.9656V17.1034H81.2414V12.8276Z" fill="white"/>
<path d="M81.2414 17.1035H76.9656V21.3793H81.2414V17.1035Z" fill="white"/>
<path d="M81.2414 21.3793H76.9656V25.6552H81.2414V21.3793Z" fill="white"/>
<path d="M81.2414 25.6552H76.9656V29.931H81.2414V25.6552Z" fill="white"/>
<path d="M81.2414 29.931H76.9656V34.2069H81.2414V29.931Z" fill="white"/>
<path d="M81.2414 38.4828H76.9656V42.7586H81.2414V38.4828Z" fill="white"/>
<path d="M81.2414 47.0345H76.9656V51.3103H81.2414V47.0345Z" fill="white"/>
<path d="M81.2414 51.3104H76.9656V55.5862H81.2414V51.3104Z" fill="white"/>
<path d="M81.2414 59.8621H76.9656V64.1379H81.2414V59.8621Z" fill="white"/>
<path d="M81.2414 68.4138H76.9656V72.6896H81.2414V68.4138Z" fill="white"/>
<path d="M81.2414 72.6897H76.9656V76.9655H81.2414V72.6897Z" fill="white"/>
<path d="M81.2414 76.9655H76.9656V81.2414H81.2414V76.9655Z" fill="white"/>
<path d="M81.2414 81.2414H76.9656V85.5172H81.2414V81.2414Z" fill="white"/>
<path d="M81.2414 98.3448H76.9656V102.621H81.2414V98.3448Z" fill="white"/>
<path d="M81.2414 102.621H76.9656V106.897H81.2414V102.621Z" fill="white"/>
<path d="M81.2414 106.897H76.9656V111.172H81.2414V106.897Z" fill="white"/>
<path d="M81.2414 119.724H76.9656V124H81.2414V119.724Z" fill="white"/>
<path d="M85.5172 0H81.2413V4.27586H85.5172V0Z" fill="white"/>
<path d="M85.5172 12.8276H81.2413V17.1034H85.5172V12.8276Z" fill="white"/>
<path d="M85.5172 21.3793H81.2413V25.6552H85.5172V21.3793Z" fill="white"/>
<path d="M85.5172 29.931H81.2413V34.2069H85.5172V29.931Z" fill="white"/>
<path d="M85.5172 34.2069H81.2413V38.4828H85.5172V34.2069Z" fill="white"/>
<path d="M85.5172 42.7586H81.2413V47.0345H85.5172V42.7586Z" fill="white"/>
<path d="M85.5172 51.3104H81.2413V55.5862H85.5172V51.3104Z" fill="white"/>
<path d="M85.5172 59.8621H81.2413V64.1379H85.5172V59.8621Z" fill="white"/>
<path d="M85.5172 64.1379H81.2413V68.4138H85.5172V64.1379Z" fill="white"/>
<path d="M85.5172 68.4138H81.2413V72.6896H85.5172V68.4138Z" fill="white"/>
<path d="M85.5172 89.7931H81.2413V94.069H85.5172V89.7931Z" fill="white"/>
<path d="M85.5172 94.069H81.2413V98.3448H85.5172V94.069Z" fill="white"/>
<path d="M85.5172 102.621H81.2413V106.897H85.5172V102.621Z" fill="white"/>
<path d="M85.5172 106.897H81.2413V111.172H85.5172V106.897Z" fill="white"/>
<path d="M85.5172 115.448H81.2413V119.724H85.5172V115.448Z" fill="white"/>
<path d="M85.5172 119.724H81.2413V124H85.5172V119.724Z" fill="white"/>
<path d="M89.793 0H85.5171V4.27586H89.793V0Z" fill="white"/>
<path d="M89.793 12.8276H85.5171V17.1034H89.793V12.8276Z" fill="white"/>
<path d="M89.793 17.1035H85.5171V21.3793H89.793V17.1035Z" fill="white"/>
<path d="M89.793 21.3793H85.5171V25.6552H89.793V21.3793Z" fill="white"/>
<path d="M89.793 25.6552H85.5171V29.931H89.793V25.6552Z" fill="white"/>
<path d="M89.793 29.931H85.5171V34.2069H89.793V29.931Z" fill="white"/>
<path d="M89.793 42.7586H85.5171V47.0345H89.793V42.7586Z" fill="white"/>
<path d="M89.793 59.8621H85.5171V64.1379H89.793V59.8621Z" fill="white"/>
<path d="M89.793 72.6897H85.5171V76.9655H89.793V72.6897Z" fill="white"/>
<path d="M89.793 81.2414H85.5171V85.5172H89.793V81.2414Z" fill="white"/>
<path d="M89.793 85.5172H85.5171V89.7931H89.793V85.5172Z" fill="white"/>
<path d="M89.793 89.7931H85.5171V94.069H89.793V89.7931Z" fill="white"/>
<path d="M89.793 94.069H85.5171V98.3448H89.793V94.069Z" fill="white"/>
<path d="M89.793 98.3448H85.5171V102.621H89.793V98.3448Z" fill="white"/>
<path d="M89.793 102.621H85.5171V106.897H89.793V102.621Z" fill="white"/>
<path d="M89.793 111.172H85.5171V115.448H89.793V111.172Z" fill="white"/>
<path d="M89.793 115.448H85.5171V119.724H89.793V115.448Z" fill="white"/>
<path d="M89.793 119.724H85.5171V124H89.793V119.724Z" fill="white"/>
<path d="M94.069 34.2069H89.7931V38.4828H94.069V34.2069Z" fill="white"/>
<path d="M94.069 38.4828H89.7931V42.7586H94.069V38.4828Z" fill="white"/>
<path d="M94.069 59.8621H89.7931V64.1379H94.069V59.8621Z" fill="white"/>
<path d="M94.069 64.1379H89.7931V68.4138H94.069V64.1379Z" fill="white"/>
<path d="M94.069 72.6897H89.7931V76.9655H94.069V72.6897Z" fill="white"/>
<path d="M94.069 76.9655H89.7931V81.2414H94.069V76.9655Z" fill="white"/>
<path d="M94.069 81.2414H89.7931V85.5172H94.069V81.2414Z" fill="white"/>
<path d="M94.069 85.5172H89.7931V89.7931H94.069V85.5172Z" fill="white"/>
<path d="M94.069 102.621H89.7931V106.897H94.069V102.621Z" fill="white"/>
<path d="M94.069 106.897H89.7931V111.172H94.069V106.897Z" fill="white"/>
<path d="M94.069 111.172H89.7931V115.448H94.069V111.172Z" fill="white"/>
<path d="M98.3448 34.2069H94.069V38.4828H98.3448V34.2069Z" fill="white"/>
<path d="M98.3448 38.4828H94.069V42.7586H98.3448V38.4828Z" fill="white"/>
<path d="M98.3448 51.3104H94.069V55.5862H98.3448V51.3104Z" fill="white"/>
<path d="M98.3448 55.5862H94.069V59.8621H98.3448V55.5862Z" fill="white"/>
<path d="M98.3448 59.8621H94.069V64.1379H98.3448V59.8621Z" fill="white"/>
<path d="M98.3448 64.1379H94.069V68.4138H98.3448V64.1379Z" fill="white"/>
<path d="M98.3448 72.6897H94.069V76.9655H98.3448V72.6897Z" fill="white"/>
<path d="M98.3448 81.2414H94.069V85.5172H98.3448V81.2414Z" fill="white"/>
<path d="M98.3448 85.5172H94.069V89.7931H98.3448V85.5172Z" fill="white"/>
<path d="M98.3448 94.069H94.069V98.3448H98.3448V94.069Z" fill="white"/>
<path d="M98.3448 102.621H94.069V106.897H98.3448V102.621Z" fill="white"/>
<path d="M102.621 55.5862H98.3447V59.8621H102.621V55.5862Z" fill="white"/>
<path d="M102.621 59.8621H98.3447V64.1379H102.621V59.8621Z" fill="white"/>
<path d="M102.621 64.1379H98.3447V68.4138H102.621V64.1379Z" fill="white"/>
<path d="M102.621 72.6897H98.3447V76.9655H102.621V72.6897Z" fill="white"/>
<path d="M102.621 76.9655H98.3447V81.2414H102.621V76.9655Z" fill="white"/>
<path d="M102.621 81.2414H98.3447V85.5172H102.621V81.2414Z" fill="white"/>
<path d="M102.621 85.5172H98.3447V89.7931H102.621V85.5172Z" fill="white"/>
<path d="M102.621 102.621H98.3447V106.897H102.621V102.621Z" fill="white"/>
<path d="M102.621 106.897H98.3447V111.172H102.621V106.897Z" fill="white"/>
<path d="M102.621 115.448H98.3447V119.724H102.621V115.448Z" fill="white"/>
<path d="M106.897 42.7586H102.621V47.0345H106.897V42.7586Z" fill="white"/>
<path d="M106.897 51.3104H102.621V55.5862H106.897V51.3104Z" fill="white"/>
<path d="M106.897 64.1379H102.621V68.4138H106.897V64.1379Z" fill="white"/>
<path d="M106.897 72.6897H102.621V76.9655H106.897V72.6897Z" fill="white"/>
<path d="M106.897 81.2414H102.621V85.5172H106.897V81.2414Z" fill="white"/>
<path d="M106.897 85.5172H102.621V89.7931H106.897V85.5172Z" fill="white"/>
<path d="M106.897 89.7931H102.621V94.069H106.897V89.7931Z" fill="white"/>
<path d="M106.897 94.069H102.621V98.3448H106.897V94.069Z" fill="white"/>
<path d="M106.897 98.3448H102.621V102.621H106.897V98.3448Z" fill="white"/>
<path d="M106.897 102.621H102.621V106.897H106.897V102.621Z" fill="white"/>
<path d="M106.897 115.448H102.621V119.724H106.897V115.448Z" fill="white"/>
<path d="M106.897 119.724H102.621V124H106.897V119.724Z" fill="white"/>
<path d="M111.172 51.3104H106.897V55.5862H111.172V51.3104Z" fill="white"/>
<path d="M111.172 55.5862H106.897V59.8621H111.172V55.5862Z" fill="white"/>
<path d="M111.172 76.9655H106.897V81.2414H111.172V76.9655Z" fill="white"/>
<path d="M111.172 81.2414H106.897V85.5172H111.172V81.2414Z" fill="white"/>
<path d="M111.172 85.5172H106.897V89.7931H111.172V85.5172Z" fill="white"/>
<path d="M111.172 98.3448H106.897V102.621H111.172V98.3448Z" fill="white"/>
<path d="M111.172 115.448H106.897V119.724H111.172V115.448Z" fill="white"/>
<path d="M115.448 38.4828H111.172V42.7586H115.448V38.4828Z" fill="white"/>
<path d="M115.448 42.7586H111.172V47.0345H115.448V42.7586Z" fill="white"/>
<path d="M115.448 55.5862H111.172V59.8621H115.448V55.5862Z" fill="white"/>
<path d="M115.448 64.1379H111.172V68.4138H115.448V64.1379Z" fill="white"/>
<path d="M115.448 68.4138H111.172V72.6896H115.448V68.4138Z" fill="white"/>
<path d="M115.448 72.6897H111.172V76.9655H115.448V72.6897Z" fill="white"/>
<path d="M115.448 81.2414H111.172V85.5172H115.448V81.2414Z" fill="white"/>
<path d="M115.448 85.5172H111.172V89.7931H115.448V85.5172Z" fill="white"/>
<path d="M115.448 89.7931H111.172V94.069H115.448V89.7931Z" fill="white"/>
<path d="M115.448 94.069H111.172V98.3448H115.448V94.069Z" fill="white"/>
<path d="M115.448 98.3448H111.172V102.621H115.448V98.3448Z" fill="white"/>
<path d="M115.448 102.621H111.172V106.897H115.448V102.621Z" fill="white"/>
<path d="M115.448 106.897H111.172V111.172H115.448V106.897Z" fill="white"/>
<path d="M115.448 115.448H111.172V119.724H115.448V115.448Z" fill="white"/>
<path d="M119.724 34.2069H115.448V38.4828H119.724V34.2069Z" fill="white"/>
<path d="M119.724 47.0345H115.448V51.3103H119.724V47.0345Z" fill="white"/>
<path d="M119.724 59.8621H115.448V64.1379H119.724V59.8621Z" fill="white"/>
<path d="M119.724 68.4138H115.448V72.6896H119.724V68.4138Z" fill="white"/>
<path d="M119.724 89.7931H115.448V94.069H119.724V89.7931Z" fill="white"/>
<path d="M119.724 102.621H115.448V106.897H119.724V102.621Z" fill="white"/>
<path d="M119.724 106.897H115.448V111.172H119.724V106.897Z" fill="white"/>
<path d="M119.724 111.172H115.448V115.448H119.724V111.172Z" fill="white"/>
<path d="M119.724 119.724H115.448V124H119.724V119.724Z" fill="white"/>
<path d="M124 38.4828H119.724V42.7586H124V38.4828Z" fill="white"/>
<path d="M124 47.0345H119.724V51.3103H124V47.0345Z" fill="white"/>
<path d="M124 64.1379H119.724V68.4138H124V64.1379Z" fill="white"/>
<path d="M124 68.4138H119.724V72.6896H124V68.4138Z" fill="white"/>
<path d="M124 72.6897H119.724V76.9655H124V72.6897Z" fill="white"/>
<path d="M124 81.2414H119.724V85.5172H124V81.2414Z" fill="white"/>
<path d="M124 89.7931H119.724V94.069H124V89.7931Z" fill="white"/>
<path d="M124 102.621H119.724V106.897H124V102.621Z" fill="white"/>
<path d="M124 106.897H119.724V111.172H124V106.897Z" fill="white"/>
<path d="M124 111.172H119.724V115.448H124V111.172Z" fill="white"/>
<path fill-rule="evenodd" clip-rule="evenodd" d="M0 0V29.931H29.931V0H0ZM4.27586 4.27586H25.6552V25.6552H4.27586V4.27586Z" fill="white"/>
<path d="M12.8275 8.55173H8.55164V12.8276H12.8275V8.55173Z" fill="white"/>
<path d="M12.8275 12.8276H8.55164V17.1034H12.8275V12.8276Z" fill="white"/>
<path d="M12.8275 17.1035H8.55164V21.3793H12.8275V17.1035Z" fill="white"/>
<path d="M17.1035 8.55173H12.8276V12.8276H17.1035V8.55173Z" fill="white"/>
<path d="M17.1035 12.8276H12.8276V17.1034H17.1035V12.8276Z" fill="white"/>
<path d="M17.1035 17.1035H12.8276V21.3793H17.1035V17.1035Z" fill="white"/>
<path d="M21.3793 8.55173H17.1034V12.8276H21.3793V8.55173Z" fill="white"/>
<path d="M21.3793 12.8276H17.1034V17.1034H21.3793V12.8276Z" fill="white"/>
<path d="M21.3793 17.1035H17.1034V21.3793H21.3793V17.1035Z" fill="white"/>
<path fill-rule="evenodd" clip-rule="evenodd" d="M124 0L94.069 0V29.931L124 29.931V0ZM119.724 4.27586V25.6552H98.3448V4.27586L119.724 4.27586Z" fill="white"/>
<path d="M106.897 8.55173H102.621V12.8276H106.897V8.55173Z" fill="white"/>
<path d="M106.897 12.8276H102.621V17.1034H106.897V12.8276Z" fill="white"/>
<path d="M106.897 17.1035H102.621V21.3793H106.897V17.1035Z" fill="white"/>
<path d="M111.172 8.55173H106.897V12.8276H111.172V8.55173Z" fill="white"/>
<path d="M111.172 12.8276H106.897V17.1034H111.172V12.8276Z" fill="white"/>
<path d="M111.172 17.1035H106.897V21.3793H111.172V17.1035Z" fill="white"/>
<path d="M115.448 8.55173H111.172V12.8276H115.448V8.55173Z" fill="white"/>
<path d="M115.448 12.8276H111.172V17.1034H115.448V12.8276Z" fill="white"/>
<path d="M115.448 17.1035H111.172V21.3793H115.448V17.1035Z" fill="white"/>
<path fill-rule="evenodd" clip-rule="evenodd" d="M0 124H29.931L29.931 94.069H0L0 124ZM4.27586 119.724L4.27586 98.3448H25.6552V119.724H4.27586Z" fill="white"/>
<path d="M12.8275 102.621H8.55164V106.897H12.8275V102.621Z" fill="white"/>
<path d="M12.8275 106.897H8.55164V111.172H12.8275V106.897Z" fill="white"/>
<path d="M12.8275 111.172H8.55164V115.448H12.8275V111.172Z" fill="white"/>
<path d="M17.1035 102.621H12.8276V106.897H17.1035V102.621Z" fill="white"/>
<path d="M17.1035 106.897H12.8276V111.172H17.1035V106.897Z" fill="white"/>
<path d="M17.1035 111.172H12.8276V115.448H17.1035V111.172Z" fill="white"/>
<path d="M21.3793 102.621H17.1034V106.897H21.3793V102.621Z" fill="white"/>
<path d="M21.3793 106.897H17.1034V111.172H21.3793V106.897Z" fill="white"/>
<path d="M21.3793 111.172H17.1034V115.448H21.3793V111.172Z" fill="white"/>
</mask>
<g mask="url(#mask0_56_689)">
<path d="M126.138 -2.13792H-2.13794V126.138H126.138V-2.13792Z" fill="#033862"/>
</g>
</svg>
