<svg width="40" height="32" viewBox="0 0 40 32" fill="none" xmlns="http://www.w3.org/2000/svg">
<g opacity="0.75">
<g clip-path="url(#clip0_56_537)">
<path d="M-10.9731 0H51.687V32H-10.9731V0Z" fill="#006600"/>
<path d="M-10.9731 0H51.687V22.8571H-10.9731V0Z" fill="white"/>
<path d="M-10.9731 0H51.687V9.14286H-10.9731V0Z" fill="#CC0000"/>
<path d="M19.1038 15.5596C19.1649 15.4523 19.2585 15.3682 19.3705 15.3201C19.4826 15.272 19.6069 15.2625 19.7247 15.2929C19.8426 15.3234 19.9475 15.3922 20.0236 15.489C20.0997 15.5858 20.1429 15.7053 20.1466 15.8293V18.1151H20.5673V15.8293C20.571 15.7053 20.6142 15.5858 20.6903 15.489C20.7665 15.3922 20.8714 15.3234 20.9892 15.2929C21.107 15.2625 21.2313 15.272 21.3434 15.3201C21.4554 15.3682 21.5491 15.4523 21.6102 15.5596C21.676 15.357 21.6937 15.1412 21.662 14.9302C21.6302 14.7192 21.5499 14.5189 21.4275 14.3457C21.3051 14.1726 21.1443 14.0316 20.9582 13.9344C20.7721 13.8372 20.566 13.7865 20.357 13.7865C20.1479 13.7865 19.9419 13.8372 19.7557 13.9344C19.5696 14.0316 19.4088 14.1726 19.2864 14.3457C19.1641 14.5189 19.0837 14.7192 19.0519 14.9302C19.0202 15.1412 19.0379 15.357 19.1038 15.5596Z" fill="#F8C300"/>
<path d="M19.4038 14.963C19.5875 14.9247 19.7783 14.9462 19.9493 15.0245C20.1203 15.1028 20.263 15.234 20.3571 15.3996C20.4513 15.234 20.5939 15.1028 20.765 15.0245C20.936 14.9462 21.1268 14.9247 21.3105 14.963C21.2788 14.7277 21.1648 14.5121 20.9896 14.356C20.8143 14.1999 20.5897 14.1139 20.3571 14.1139C20.1246 14.1139 19.8999 14.1999 19.7247 14.356C19.5494 14.5121 19.4355 14.7277 19.4038 14.963Z" fill="white"/>
<path d="M20.1468 17.202C20.1183 17.5263 20.0011 17.8359 19.8086 18.0955C19.6161 18.355 19.3561 18.5541 19.0582 18.67C18.7602 18.7859 18.4364 18.8139 18.1237 18.7509C17.8109 18.6879 17.5218 18.5364 17.2893 18.3136C17.1899 18.5683 17.035 18.7966 16.8364 18.9811C16.6378 19.1656 16.4007 19.3015 16.143 19.3785C15.8854 19.4554 15.6139 19.4715 15.3493 19.4253C15.0847 19.3791 14.8338 19.272 14.6157 19.1121C14.7791 20.7773 17.2229 20.4373 17.405 18.8182C18.1728 20.1949 19.861 19.8006 20.3549 18.1142L20.1468 17.202Z" fill="#F8C300"/>
<path d="M20.5676 17.202C20.5961 17.5263 20.7133 17.8359 20.9058 18.0955C21.0982 18.355 21.3583 18.5541 21.6562 18.67C21.9541 18.7859 22.2779 18.8139 22.5907 18.7509C22.9035 18.6879 23.1926 18.5364 23.4251 18.3136C23.5245 18.5683 23.6793 18.7966 23.8779 18.9811C24.0765 19.1656 24.3136 19.3015 24.5713 19.3785C24.829 19.4554 25.1004 19.4715 25.3651 19.4253C25.6297 19.3791 25.8806 19.272 26.0986 19.1121C25.9353 20.7773 23.4914 20.4373 23.3094 18.8182C22.5416 20.1949 20.8534 19.8006 20.3594 18.1142L20.5676 17.202Z" fill="#F8C300"/>
<path d="M18.5146 20.159C18.1736 20.9108 17.4921 21.0399 16.896 20.433C16.896 20.433 17.1356 20.2601 17.3922 20.2124C17.3441 20.0033 17.4427 19.7141 17.5817 19.5576C17.7275 19.6594 17.931 19.8634 17.9828 20.1004C18.3421 20.0529 18.5146 20.159 18.5146 20.159Z" fill="#F8C300"/>
<path d="M21.1823 20.0738C20.726 20.7589 20.033 20.773 19.5416 20.0751C19.5416 20.0751 19.8056 19.9443 20.0663 19.9399C20.0522 19.7256 20.1956 19.4566 20.3577 19.3253C20.4854 19.45 20.6536 19.6851 20.6669 19.9276C21.029 19.9405 21.1823 20.0738 21.1823 20.0738Z" fill="#F8C300"/>
<path d="M23.8275 20.4334C23.2682 21.0334 22.5821 20.9321 22.2085 20.1618C22.2085 20.1618 22.4898 20.0766 22.7478 20.1157C22.768 19.9019 22.9524 19.6603 23.1333 19.5578C23.2393 19.702 23.3678 19.962 23.3423 20.2034C23.6975 20.2763 23.8275 20.4334 23.8275 20.4334Z" fill="#F8C300"/>
<path d="M16.0156 21.8361C18.8485 20.9749 21.8656 20.9749 24.6985 21.8361" stroke="#F8C300" stroke-width="0.5"/>
<path d="M19.293 10.603H21.4213L19.6994 11.8808L20.3571 9.81335L21.0148 11.8808L19.293 10.603Z" fill="#F8C300"/>
<path d="M16.1597 11.4605H18.288L16.5661 12.7382L17.2238 10.6708L17.8815 12.7382L16.1597 11.4605Z" fill="#F8C300"/>
<path d="M13.8662 13.803H15.9945L14.2727 15.0808L14.9304 13.0133L15.5881 15.0808L13.8662 13.803Z" fill="#F8C300"/>
<path d="M13.0269 17.0031H15.1552L13.4333 18.2808L14.091 16.2134L14.7487 18.2808L13.0269 17.0031Z" fill="#F8C300"/>
<path d="M24.5542 11.4605H22.4259L24.1477 12.7382L23.49 10.6708L22.8323 12.7382L24.5542 11.4605Z" fill="#F8C300"/>
<path d="M26.8477 13.803H24.7193L26.4412 15.0808L25.7835 13.0133L25.1258 15.0808L26.8477 13.803Z" fill="#F8C300"/>
<path d="M27.687 17.0031H25.5587L27.2805 18.2808L26.6228 16.2134L25.9652 18.2808L27.687 17.0031Z" fill="#F8C300"/>
</g>
</g>
<defs>
<clipPath id="clip0_56_537">
<rect width="40" height="32" rx="8" fill="white"/>
</clipPath>
</defs>
</svg>
