<svg width="24" height="24" viewBox="0 0 24 24" fill="none" xmlns="http://www.w3.org/2000/svg">
<path fill-rule="evenodd" clip-rule="evenodd" d="M18.7876 4.08692C17.5895 4.5573 2.82286 10.6115 2.60537 10.7216C1.88265 11.0871 1.79816 11.57 2.39981 11.8966C2.45789 11.9281 3.45739 12.2692 4.62091 12.6546L6.73644 13.3553L11.5401 10.1484C14.1821 8.38456 16.397 6.92163 16.462 6.89747C16.6252 6.83676 16.7656 6.84243 16.8311 6.91239C16.877 6.96134 16.8789 6.98591 16.8424 7.05786C16.8183 7.10546 15.0639 8.80584 12.9436 10.8365C10.8234 12.8671 9.08301 14.5444 9.07601 14.5639C9.06904 14.5833 8.99733 15.5971 8.91664 16.8168L8.76997 19.0343L8.92935 19.0114C9.01701 18.9988 9.15582 18.9505 9.23781 18.9041C9.31984 18.8577 9.87181 18.3241 10.4645 17.7183C11.0571 17.1125 11.5626 16.6084 11.5877 16.5981C11.6127 16.5879 12.5565 17.3013 13.685 18.1836C14.8134 19.0659 15.8251 19.8314 15.9332 19.8847C16.2166 20.0245 16.536 20.0383 16.7434 19.9199C16.9286 19.8141 17.1097 19.5513 17.1858 19.2777C17.2153 19.1718 17.8604 15.9907 18.6195 12.2085C19.8832 5.91143 19.9996 5.30177 20 4.97494C20.0004 4.66614 19.9884 4.59269 19.9109 4.43016C19.8562 4.31557 19.763 4.19858 19.6718 4.1302C19.4635 3.97383 19.1187 3.95696 18.7876 4.08692Z" fill="#033862"/>
</svg>
