<svg width="40" height="32" viewBox="0 0 40 32" fill="none" xmlns="http://www.w3.org/2000/svg">
<g opacity="0.9">
<g clip-path="url(#clip0_56_310)">
<path d="M0 0H64.4734V32H0V0Z" fill="#1EB53A"/>
<path d="M0 0H64.4734V16H0V0Z" fill="#0099B5"/>
<path d="M0 10.24H64.4734V21.76H0V10.24Z" fill="#CE1126"/>
<path d="M0 10.88H64.4734V21.12H0V10.88Z" fill="white"/>
<path d="M9.02612 8.96003C11.1626 8.96003 12.8945 7.2408 12.8945 5.12003C12.8945 2.99926 11.1626 1.28003 9.02612 1.28003C6.88966 1.28003 5.15771 2.99926 5.15771 5.12003C5.15771 7.2408 6.88966 8.96003 9.02612 8.96003Z" fill="white"/>
<path d="M10.3157 8.96003C12.4521 8.96003 14.1841 7.2408 14.1841 5.12003C14.1841 2.99926 12.4521 1.28003 10.3157 1.28003C8.17921 1.28003 6.44727 2.99926 6.44727 5.12003C6.44727 7.2408 8.17921 8.96003 10.3157 8.96003Z" fill="#0099B5"/>
<path d="M17.5366 7.42407L17.2975 8.15448L17.6654 8.27315" fill="white"/>
<path d="M17.5366 7.42407L17.7757 8.15448L17.4078 8.27315" fill="white"/>
<path d="M18.272 7.95605L17.499 7.95478L17.4997 8.3375" fill="white"/>
<path d="M18.2725 7.95544L17.6472 8.4062L17.4192 8.09488" fill="white"/>
<path d="M16.8008 7.95544L17.4261 8.4062L17.6541 8.09488" fill="white"/>
<path d="M16.8018 7.95605L17.5747 7.95478L17.574 8.3375" fill="white"/>
<path d="M17.9912 8.81384L17.7516 8.08303L17.3842 8.2013" fill="white"/>
<path d="M17.9917 8.81348L17.3654 8.36162L17.5923 8.05139" fill="white"/>
<path d="M17.082 8.81335L17.7076 8.36229L17.4799 8.05127" fill="white"/>
<path d="M17.082 8.81311L17.3206 8.08302L17.689 8.202" fill="white"/>
<path d="M17.5366 4.35205L17.2975 5.08246L17.6654 5.20112" fill="white"/>
<path d="M17.5366 4.35205L17.7757 5.08246L17.4078 5.20112" fill="white"/>
<path d="M18.272 4.88403L17.499 4.88276L17.4997 5.26548" fill="white"/>
<path d="M18.2725 4.88342L17.6472 5.33418L17.4192 5.02286" fill="white"/>
<path d="M16.8008 4.88342L17.4261 5.33418L17.6541 5.02286" fill="white"/>
<path d="M16.8018 4.88403L17.5747 4.88276L17.574 5.26548" fill="white"/>
<path d="M17.9912 5.74182L17.7516 5.01101L17.3842 5.12928" fill="white"/>
<path d="M17.9917 5.74146L17.3654 5.2896L17.5923 4.97937" fill="white"/>
<path d="M17.082 5.74133L17.7076 5.29027L17.4799 4.97925" fill="white"/>
<path d="M17.082 5.74109L17.3206 5.011L17.689 5.12998" fill="white"/>
<path d="M17.5366 1.28003L17.2975 2.01044L17.6654 2.1291" fill="white"/>
<path d="M17.5366 1.28003L17.7757 2.01044L17.4078 2.1291" fill="white"/>
<path d="M18.272 1.81201L17.499 1.81074L17.4997 2.19346" fill="white"/>
<path d="M18.2725 1.8114L17.6472 2.26216L17.4192 1.95084" fill="white"/>
<path d="M16.8008 1.8114L17.4261 2.26216L17.6541 1.95084" fill="white"/>
<path d="M16.8018 1.81201L17.5747 1.81074L17.574 2.19346" fill="white"/>
<path d="M17.9912 2.6698L17.7516 1.93899L17.3842 2.05725" fill="white"/>
<path d="M17.9917 2.66943L17.3654 2.21758L17.5923 1.90735" fill="white"/>
<path d="M17.082 2.66931L17.7076 2.21825L17.4799 1.90723" fill="white"/>
<path d="M17.082 2.66907L17.3206 1.93897L17.689 2.05795" fill="white"/>
<path d="M20.6313 7.42407L20.3923 8.15448L20.7602 8.27315" fill="white"/>
<path d="M20.6313 7.42407L20.8704 8.15448L20.5025 8.27315" fill="white"/>
<path d="M21.3667 7.95605L20.5937 7.95478L20.5944 8.3375" fill="white"/>
<path d="M21.3672 7.95544L20.7419 8.4062L20.5139 8.09488" fill="white"/>
<path d="M19.8955 7.95544L20.5208 8.4062L20.7488 8.09488" fill="white"/>
<path d="M19.8965 7.95605L20.6695 7.95478L20.6687 8.3375" fill="white"/>
<path d="M21.0859 8.81384L20.8463 8.08303L20.479 8.2013" fill="white"/>
<path d="M21.0864 8.81348L20.4601 8.36162L20.6871 8.05139" fill="white"/>
<path d="M20.1768 8.81335L20.8024 8.36229L20.5746 8.05127" fill="white"/>
<path d="M20.1768 8.81311L20.4154 8.08302L20.7837 8.202" fill="white"/>
<path d="M20.6313 4.35205L20.3923 5.08246L20.7602 5.20112" fill="white"/>
<path d="M20.6313 4.35205L20.8704 5.08246L20.5025 5.20112" fill="white"/>
<path d="M21.3667 4.88403L20.5937 4.88276L20.5944 5.26548" fill="white"/>
<path d="M21.3672 4.88342L20.7419 5.33418L20.5139 5.02286" fill="white"/>
<path d="M19.8955 4.88342L20.5208 5.33418L20.7488 5.02286" fill="white"/>
<path d="M19.8965 4.88403L20.6695 4.88276L20.6687 5.26548" fill="white"/>
<path d="M21.0859 5.74182L20.8463 5.01101L20.479 5.12928" fill="white"/>
<path d="M21.0864 5.74146L20.4601 5.2896L20.6871 4.97937" fill="white"/>
<path d="M20.1768 5.74133L20.8024 5.29027L20.5746 4.97925" fill="white"/>
<path d="M20.1768 5.74109L20.4154 5.011L20.7837 5.12998" fill="white"/>
<path d="M20.6313 1.28003L20.3923 2.01044L20.7602 2.1291" fill="white"/>
<path d="M20.6313 1.28003L20.8704 2.01044L20.5025 2.1291" fill="white"/>
<path d="M21.3667 1.81201L20.5937 1.81074L20.5944 2.19346" fill="white"/>
<path d="M21.3672 1.8114L20.7419 2.26216L20.5139 1.95084" fill="white"/>
<path d="M19.8955 1.8114L20.5208 2.26216L20.7488 1.95084" fill="white"/>
<path d="M19.8965 1.81201L20.6695 1.81074L20.6687 2.19346" fill="white"/>
<path d="M21.0859 2.6698L20.8463 1.93899L20.479 2.05725" fill="white"/>
<path d="M21.0864 2.66943L20.4601 2.21758L20.6871 1.90735" fill="white"/>
<path d="M20.1768 2.66931L20.8024 2.21825L20.5746 1.90723" fill="white"/>
<path d="M20.1768 2.66907L20.4154 1.93897L20.7837 2.05795" fill="white"/>
<path d="M23.7261 7.42407L23.487 8.15448L23.8549 8.27315" fill="white"/>
<path d="M23.7261 7.42407L23.9652 8.15448L23.5972 8.27315" fill="white"/>
<path d="M24.4614 7.95605L23.6885 7.95478L23.6892 8.3375" fill="white"/>
<path d="M24.4619 7.95544L23.8366 8.4062L23.6086 8.09488" fill="white"/>
<path d="M22.9902 7.95544L23.6155 8.4062L23.8435 8.09488" fill="white"/>
<path d="M22.9912 7.95605L23.7642 7.95478L23.7635 8.3375" fill="white"/>
<path d="M24.1807 8.81384L23.941 8.08303L23.5737 8.2013" fill="white"/>
<path d="M24.1812 8.81348L23.5548 8.36162L23.7818 8.05139" fill="white"/>
<path d="M23.2715 8.81335L23.8971 8.36229L23.6694 8.05127" fill="white"/>
<path d="M23.2715 8.81311L23.5101 8.08302L23.8785 8.202" fill="white"/>
<path d="M23.7261 4.35205L23.487 5.08246L23.8549 5.20112" fill="white"/>
<path d="M23.7261 4.35205L23.9652 5.08246L23.5972 5.20112" fill="white"/>
<path d="M24.4614 4.88403L23.6885 4.88276L23.6892 5.26548" fill="white"/>
<path d="M24.4619 4.88342L23.8366 5.33418L23.6086 5.02286" fill="white"/>
<path d="M22.9902 4.88342L23.6155 5.33418L23.8435 5.02286" fill="white"/>
<path d="M22.9912 4.88403L23.7642 4.88276L23.7635 5.26548" fill="white"/>
<path d="M24.1807 5.74182L23.941 5.01101L23.5737 5.12928" fill="white"/>
<path d="M24.1812 5.74146L23.5548 5.2896L23.7818 4.97937" fill="white"/>
<path d="M23.2715 5.74133L23.8971 5.29027L23.6694 4.97925" fill="white"/>
<path d="M23.2715 5.74109L23.5101 5.011L23.8785 5.12998" fill="white"/>
<path d="M23.7261 1.28003L23.487 2.01044L23.8549 2.1291" fill="white"/>
<path d="M23.7261 1.28003L23.9652 2.01044L23.5972 2.1291" fill="white"/>
<path d="M24.4614 1.81201L23.6885 1.81074L23.6892 2.19346" fill="white"/>
<path d="M24.4619 1.8114L23.8366 2.26216L23.6086 1.95084" fill="white"/>
<path d="M22.9902 1.8114L23.6155 2.26216L23.8435 1.95084" fill="white"/>
<path d="M22.9912 1.81201L23.7642 1.81074L23.7635 2.19346" fill="white"/>
<path d="M24.1807 2.6698L23.941 1.93899L23.5737 2.05725" fill="white"/>
<path d="M24.1812 2.66943L23.5548 2.21758L23.7818 1.90735" fill="white"/>
<path d="M23.2715 2.66931L23.8971 2.21825L23.6694 1.90723" fill="white"/>
<path d="M23.2715 2.66907L23.5101 1.93897L23.8785 2.05795" fill="white"/>
<path d="M11.3472 7.42407L11.1081 8.15448L11.476 8.27315" fill="white"/>
<path d="M11.3472 7.42407L11.5862 8.15448L11.2183 8.27315" fill="white"/>
<path d="M12.0825 7.95605L11.3095 7.95478L11.3103 8.3375" fill="white"/>
<path d="M12.083 7.95544L11.4577 8.4062L11.2297 8.09488" fill="white"/>
<path d="M10.6113 7.95544L11.2366 8.4062L11.4646 8.09488" fill="white"/>
<path d="M10.6123 7.95605L11.3853 7.95478L11.3846 8.3375" fill="white"/>
<path d="M11.8018 8.81384L11.5621 8.08303L11.1948 8.2013" fill="white"/>
<path d="M11.8022 8.81348L11.1759 8.36162L11.4029 8.05139" fill="white"/>
<path d="M10.8926 8.81335L11.5182 8.36229L11.2905 8.05127" fill="white"/>
<path d="M10.8926 8.81311L11.1312 8.08302L11.4996 8.202" fill="white"/>
<path d="M14.4419 7.42407L14.2028 8.15448L14.5707 8.27315" fill="white"/>
<path d="M14.4419 7.42407L14.681 8.15448L14.3131 8.27315" fill="white"/>
<path d="M15.1772 7.95605L14.4043 7.95478L14.405 8.3375" fill="white"/>
<path d="M15.1777 7.95544L14.5524 8.4062L14.3244 8.09488" fill="white"/>
<path d="M13.7061 7.95544L14.3313 8.4062L14.5594 8.09488" fill="white"/>
<path d="M13.707 7.95605L14.48 7.95478L14.4793 8.3375" fill="white"/>
<path d="M14.8965 8.81384L14.6568 8.08303L14.2895 8.2013" fill="white"/>
<path d="M14.897 8.81348L14.2706 8.36162L14.4976 8.05139" fill="white"/>
<path d="M13.9873 8.81335L14.6129 8.36229L14.3852 8.05127" fill="white"/>
<path d="M13.9873 8.81311L14.2259 8.08302L14.5943 8.202" fill="white"/>
<path d="M14.4419 4.35205L14.2028 5.08246L14.5707 5.20112" fill="white"/>
<path d="M14.4419 4.35205L14.681 5.08246L14.3131 5.20112" fill="white"/>
<path d="M15.1772 4.88403L14.4043 4.88276L14.405 5.26548" fill="white"/>
<path d="M15.1777 4.88342L14.5524 5.33418L14.3244 5.02286" fill="white"/>
<path d="M13.7061 4.88342L14.3313 5.33418L14.5594 5.02286" fill="white"/>
<path d="M13.707 4.88403L14.48 4.88276L14.4793 5.26548" fill="white"/>
<path d="M14.8965 5.74182L14.6568 5.01101L14.2895 5.12928" fill="white"/>
<path d="M14.897 5.74146L14.2706 5.2896L14.4976 4.97937" fill="white"/>
<path d="M13.9873 5.74133L14.6129 5.29027L14.3852 4.97925" fill="white"/>
<path d="M13.9873 5.74109L14.2259 5.011L14.5943 5.12998" fill="white"/>
</g>
</g>
<defs>
<clipPath id="clip0_56_310">
<rect width="40" height="32" rx="8" fill="white"/>
</clipPath>
</defs>
</svg>
