<svg width="24" height="24" viewBox="0 0 24 24" fill="none" xmlns="http://www.w3.org/2000/svg">
<path fill-rule="evenodd" clip-rule="evenodd" d="M22.4952 6.81256C22.6481 6.34417 22.4952 6 21.7673 6H19.3605C18.7486 6 18.4664 6.29732 18.3134 6.62517C18.3134 6.62517 17.0895 9.3652 15.3556 11.145C14.7946 11.6602 14.5396 11.8242 14.2336 11.8242C14.0807 11.8242 13.8592 11.6602 13.8592 11.1919V6.81256C13.8592 6.2505 13.6816 6 13.1716 6H9.38945C9.00703 6 8.77703 6.26087 8.77703 6.5081C8.77703 7.04093 9.64393 7.1638 9.73328 8.66264V11.9179C9.73328 12.6316 9.59295 12.761 9.28696 12.761C8.47104 12.761 6.48632 10.0087 5.30919 6.85938C5.0785 6.24726 4.84712 6 4.23201 6H1.8252C1.13754 6 1 6.29732 1 6.62517C1 7.21066 1.81596 10.1146 4.79925 13.9553C6.7881 16.5782 9.59025 18 12.1401 18C13.67 18 13.8592 17.6842 13.8592 17.1403V15.1579C13.8592 14.5263 14.0042 14.4003 14.4886 14.4003C14.8456 14.4003 15.4576 14.5642 16.8855 15.8288C18.5174 17.3276 18.7864 18 19.7044 18H22.1112C22.7988 18 23.1426 17.6842 22.9443 17.061C22.7272 16.4399 21.9481 15.5388 20.9143 14.4705C20.3533 13.8616 19.5118 13.2059 19.2568 12.878C18.8999 12.4565 19.0019 12.2691 19.2568 11.8945C19.2568 11.8945 22.1892 8.10058 22.4952 6.81256Z" fill="#033862"/>
</svg>
